<?xml version="1.0" encoding="utf-8"?>
<!-- Generator: Adobe Illustrator 16.0.0, SVG Export Plug-In . SVG Version: 6.00 Build 0)  -->
<!DOCTYPE svg PUBLIC "-//W3C//DTD SVG 1.1//EN" "http://www.w3.org/Graphics/SVG/1.1/DTD/svg11.dtd">
<svg version="1.1" id="Layer_1" xmlns="http://www.w3.org/2000/svg" xmlns:xlink="http://www.w3.org/1999/xlink" x="0px" y="0px"
	 width="30px" height="30px" viewBox="0 0 30 30" enable-background="new 0 0 30 30" xml:space="preserve">
<path fill="#968154" d="M1.406,16.5C0.63,16.5,0,17.129,0,17.906v0.188C0,18.871,0.63,19.5,1.406,19.5h27.188
	c0.777,0,1.406-0.629,1.406-1.406v-0.188c0-0.777-0.629-1.406-1.406-1.406H1.406z"/>
<path fill="#968154" d="M1.406,10.5C0.63,10.5,0,11.129,0,11.906v0.188C0,12.871,0.63,13.5,1.406,13.5h27.188
	c0.777,0,1.406-0.629,1.406-1.406v-0.188c0-0.777-0.629-1.406-1.406-1.406H1.406z"/>
<path fill="#968154" d="M62.406,12.5C61.63,12.5,61,13.129,61,13.906v0.188c0,0.777,0.63,1.406,1.406,1.406h27.188
	c0.777,0,1.406-0.629,1.406-1.406v-0.188c0-0.777-0.629-1.406-1.406-1.406H62.406z"/>
<path fill="#968154" d="M62.406,21.5C61.63,21.5,61,20.871,61,20.094v-0.188c0-0.777,0.63-1.406,1.406-1.406h27.188
	c0.777,0,1.406,0.629,1.406,1.406v0.188c0,0.777-0.629,1.406-1.406,1.406H62.406z"/>
<path fill="#968154" d="M62.406,6.5C61.63,6.5,61,7.129,61,7.906v0.188C61,8.871,61.63,9.5,62.406,9.5h27.188
	C90.371,9.5,91,8.871,91,8.094V7.906C91,7.129,90.371,6.5,89.594,6.5H62.406z"/>
</svg>
