<?xml version="1.0" encoding="utf-8"?>
<!-- Generator: Adobe Illustrator 19.0.1, SVG Export Plug-In . SVG Version: 6.00 Build 0)  -->
<svg version="1.1" id="Layer_1" xmlns="http://www.w3.org/2000/svg" xmlns:xlink="http://www.w3.org/1999/xlink" x="0px" y="0px"
	 viewBox="0 0 996.8 996.6" style="enable-background:new 0 0 996.8 996.6;" xml:space="preserve">
<style type="text/css">
	.st0{fill:#FFFFFF;}
</style>
<g>
	<path class="st0" d="M957.3,304.4c-25.1-59.3-61-112.6-106.8-158.4c-45.7-45.7-99-81.7-158.4-106.8C630.6,13.2,565.4,0,498.2,0
		s-132.5,13.2-194,39.2C245,64.4,191.7,100.3,146,146S64.3,245,39.2,304.4C13.2,365.8,0,431.1,0,498.3s13.2,132.5,39.2,194
		c25.1,59.3,61,112.6,106.8,158.3s99,81.7,158.4,106.8c61.5,26,126.7,39.2,194,39.2s132.5-13.2,194-39.2
		c59.3-25.1,112.6-61,158.4-106.8c45.7-45.7,81.7-99,106.8-158.4c26-61.5,39.2-126.7,39.2-194C996.5,431.1,983.3,365.8,957.3,304.4z
		 M498.3,911.8c-228,0-413.4-185.5-413.4-413.4C84.9,270.4,270.4,85,498.3,85s413.4,185.5,413.4,413.4
		C911.7,726.3,726.2,911.8,498.3,911.8z"/>
	<path class="st0" d="M726.7,427.9L503.8,270.7c-6.1-4.3-14.2-4.2-20.3,0.1l-222.9,157c-14,9.9-7,31.8,10.1,31.8h51.7
		c-0.3,2-0.4,4-0.4,5.8v186c0,20.3,16.6,37.2,36.8,37.2H440v-99c0-6.8,5.1-12,12-12h88.3c6.8,0,12.8,5.2,12.8,12v99h80.3
		c20.3,0,36.7-16.9,36.7-37.2v-186c0-1.8-0.1-3.8-0.4-5.8h47C733.8,459.6,740.8,437.8,726.7,427.9z"/>
</g>
</svg>
