<?xml version="1.0" encoding="utf-8"?>
<!-- Generator: Adobe Illustrator 16.0.0, SVG Export Plug-In . SVG Version: 6.00 Build 0)  -->
<!DOCTYPE svg PUBLIC "-//W3C//DTD SVG 1.1//EN" "http://www.w3.org/Graphics/SVG/1.1/DTD/svg11.dtd">
<svg version="1.1" id="Layer_1" xmlns="http://www.w3.org/2000/svg" xmlns:xlink="http://www.w3.org/1999/xlink" x="0px" y="0px"
	 width="30px" height="30px" viewBox="0 0 30 30" enable-background="new 0 0 30 30" xml:space="preserve">
<radialGradient id="SVGID_1_" cx="-309" cy="70" r="12.4375" gradientTransform="matrix(1 0 0 -1 324 85)" gradientUnits="userSpaceOnUse">
	<stop  offset="0" style="stop-color:#FFFFFF;stop-opacity:0"/>
	<stop  offset="0.3122" style="stop-color:#FFFFFF;stop-opacity:0"/>
	<stop  offset="0.3636" style="stop-color:#FFFFFF;stop-opacity:0"/>
	<stop  offset="1" style="stop-color:#FFFFFF"/>
</radialGradient>
<circle fill="url(#SVGID_1_)" cx="15" cy="15" r="12.438"/>
<path d="M15,29.781c-8.202,0-14.875-6.674-14.875-14.875C0.125,6.704,6.798,0.031,15,0.031s14.875,6.673,14.875,14.875
	C29.875,23.107,23.202,29.781,15,29.781z M15,3.069c-6.527,0-11.837,5.31-11.837,11.837c0,6.525,5.31,11.837,11.837,11.837
	c6.525,0,11.837-5.312,11.837-11.837C26.837,8.379,21.525,3.069,15,3.069z"/>
</svg>
