<?xml version="1.0" encoding="utf-8"?>
<!-- Generator: Adobe Illustrator 16.0.0, SVG Export Plug-In . SVG Version: 6.00 Build 0)  -->
<!DOCTYPE svg PUBLIC "-//W3C//DTD SVG 1.1//EN" "http://www.w3.org/Graphics/SVG/1.1/DTD/svg11.dtd">
<svg version="1.1" id="Layer_1" xmlns="http://www.w3.org/2000/svg" xmlns:xlink="http://www.w3.org/1999/xlink" x="0px" y="0px"
	 width="30px" height="30px" viewBox="0 0 30 30" enable-background="new 0 0 30 30" xml:space="preserve">
<path fill="#FFFFFF" d="M15,0C6.716,0,0,6.716,0,15s6.716,15,15,15c8.284,0,15-6.716,15-15S23.284,0,15,0z M15.5,2.156
	c1.838,0,3.327,1.489,3.327,3.327S17.338,8.811,15.5,8.811c-1.837,0-3.327-1.489-3.327-3.327S13.663,2.156,15.5,2.156z M19,26.229
	c0,1.112-1.662,2.013-3.5,2.013s-3.5-0.9-3.5-2.013V12.955c0-1.112,1.662-2.013,3.5-2.013s3.5,0.901,3.5,2.013V26.229z"/>
</svg>
