<?xml version="1.0" encoding="utf-8"?>
<!-- Generator: Adobe Illustrator 19.0.1, SVG Export Plug-In . SVG Version: 6.00 Build 0)  -->
<svg version="1.1" id="Layer_1" xmlns="http://www.w3.org/2000/svg" xmlns:xlink="http://www.w3.org/1999/xlink" x="0px" y="0px"
	 viewBox="291 132 159 161" style="enable-background:new 291 132 159 161;" xml:space="preserve">
<style type="text/css">
	.st0{fill:#FEA100;}
	.st1{fill:#FFFFFF;}
</style>
<g>
	<ellipse class="st0" cx="370.5" cy="213.3" rx="74.6" ry="75.4"/>
	<g>
		<path class="st1" d="M394.7,184.5l-42.2,32.6c-3.4,2.6-8.8,2.5-12.2-0.1l0,0c-3.4-2.7-3.4-7,0-9.6l42.2-32.6
			c3.4-2.6,8.8-2.5,12.2,0.1l0,0C398.1,177.6,398.1,181.9,394.7,184.5z"/>
		<path class="st1" d="M394.1,242.3L352.7,208c-3.3-2.7-8.8-2.9-12.2-0.3l0,0c-3.4,2.6-3.5,6.8-0.2,9.6l41.4,34.3
			c3.3,2.7,8.8,2.9,12.2,0.3l0,0C397.4,249.4,397.5,245.1,394.1,242.3z"/>
	</g>
</g>
</svg>
