<?xml version="1.0" encoding="utf-8"?>
<!-- Generator: Adobe Illustrator 19.1.0, SVG Export Plug-In . SVG Version: 6.00 Build 0)  -->
<svg version="1.1" id="Layer_1" xmlns="http://www.w3.org/2000/svg" xmlns:xlink="http://www.w3.org/1999/xlink" x="0px" y="0px"
	 viewBox="0 0 89 87.8" style="enable-background:new 0 0 89 87.8;" xml:space="preserve">
<style type="text/css">
	.st0{fill:#D99B3B;}
</style>
<g>
	<g>
		<path class="st0" d="M1.3,87L1.3,87c-1-1.7,0.4-5.7,3.2-8.9l35.1-39.7c2.9-3.2,6-4.3,7-2.6l0,0c1,1.7-0.4,5.7-3.2,8.9L8.3,84.4
			C5.5,87.6,2.4,88.8,1.3,87z"/>
	</g>
	<g>
		<path class="st0" d="M88.7,87L88.7,87c1-1.7-0.4-5.7-3.2-8.9L50.4,38.4c-2.9-3.2-6-4.3-7-2.6l0,0c-1,1.7,0.4,5.7,3.2,8.9
			l35.1,39.7C84.5,87.6,87.6,88.8,88.7,87z"/>
	</g>
</g>
<g>
	<g>
		<path class="st0" d="M0.3,52L0.3,52c-1-1.7,0.4-5.7,3.2-8.9L38.6,3.4c2.9-3.2,6-4.3,7-2.6l0,0c1,1.7-0.4,5.7-3.2,8.9L7.3,49.4
			C4.5,52.6,1.4,53.8,0.3,52z"/>
	</g>
	<g>
		<path class="st0" d="M87.7,52L87.7,52c1-1.7-0.4-5.7-3.2-8.9L49.4,3.4c-2.9-3.2-6-4.3-7-2.6l0,0c-1,1.7,0.4,5.7,3.2,8.9l35.1,39.7
			C83.5,52.6,86.6,53.8,87.7,52z"/>
	</g>
</g>
</svg>
