<?xml version="1.0" encoding="utf-8"?>
<!-- Generator: Adobe Illustrator 19.1.0, SVG Export Plug-In . SVG Version: 6.00 Build 0)  -->
<svg version="1.1" id="Layer_1" xmlns="http://www.w3.org/2000/svg" xmlns:xlink="http://www.w3.org/1999/xlink" x="0px" y="0px"
	 viewBox="0 0 89 87.8" style="enable-background:new 0 0 89 87.8;" xml:space="preserve">
<style type="text/css">
	.st0{fill:#D99B3B;}
</style>
<g>
	<g>
		<path class="st0" d="M8.3,3.4l35.1,39.7c2.8,3.2,4.2,7.2,3.2,8.9l0,0c-1,1.7-4.1,0.6-7-2.6L4.5,9.7C1.7,6.5,0.3,2.5,1.3,0.8l0,0
			C2.4-1,5.5,0.2,8.3,3.4z"/>
	</g>
	<g>
		<path class="st0" d="M81.7,3.4L46.6,43.1c-2.8,3.2-4.2,7.2-3.2,8.9l0,0c1,1.7,4.1,0.6,7-2.6L85.5,9.7c2.8-3.2,4.2-7.2,3.2-8.9l0,0
			C87.6-1,84.5,0.2,81.7,3.4z"/>
	</g>
</g>
<g>
	<g>
		<path class="st0" d="M7.3,38.4l35.1,39.7c2.8,3.2,4.2,7.2,3.2,8.9l0,0c-1,1.7-4.1,0.6-7-2.6L3.5,44.7c-2.8-3.2-4.2-7.2-3.2-8.9
			l0,0C1.4,34,4.5,35.2,7.3,38.4z"/>
	</g>
	<g>
		<path class="st0" d="M80.7,38.4L45.6,78.1c-2.8,3.2-4.2,7.2-3.2,8.9l0,0c1,1.7,4.1,0.6,7-2.6l35.1-39.7c2.8-3.2,4.2-7.2,3.2-8.9
			l0,0C86.6,34,83.5,35.2,80.7,38.4z"/>
	</g>
</g>
</svg>
