<?xml version="1.0" encoding="utf-8"?>
<!-- Generator: Adobe Illustrator 19.1.0, SVG Export Plug-In . SVG Version: 6.00 Build 0)  -->
<svg version="1.1" id="Layer_1" xmlns="http://www.w3.org/2000/svg" xmlns:xlink="http://www.w3.org/1999/xlink" x="0px" y="0px"
	 viewBox="-444 245.6 87 87" style="enable-background:new -444 245.6 87 87;" xml:space="preserve">
<style type="text/css">
	.st0{fill:#D99B3B;}
	.st1{fill:#FFFFFF;}
</style>
<g>
	
		<image style="overflow:visible;opacity:0.75;" width="101" height="101" xlink:href="2D606688.png"  transform="matrix(1 0 0 1 -446.9 242.9)">
	</image>
	<g>
		<g>
			<circle class="st0" cx="-403.7" cy="286.7" r="35.2"/>
			<g>
				<g>
					<path class="st1" d="M-399.8,303.7h-7.7c-0.4,0-0.8-0.3-0.8-0.8v-0.4c0-0.4,0.3-0.8,0.8-0.8h7.7c0.4,0,0.8,0.3,0.8,0.8v0.4
						C-399,303.3-399.4,303.7-399.8,303.7z"/>
					<path class="st1" d="M-399.8,306.9h-7.7c-0.4,0-0.8-0.3-0.8-0.8v-0.4c0-0.4,0.3-0.8,0.8-0.8h7.7c0.4,0,0.8,0.3,0.8,0.8v0.4
						C-399,306.6-399.4,306.9-399.8,306.9z"/>
				</g>
				<path class="st1" d="M-401.4,311.2h-4.6c-0.7,0-1.4-0.6-1.4-1.4v-0.3c0-0.7,0.6-1.4,1.4-1.4h4.6c0.7,0,1.4,0.6,1.4,1.4v0.3
					C-400,310.6-400.6,311.2-401.4,311.2z"/>
				<g>
					<g>
						<ellipse class="st1" cx="-403.7" cy="288.1" rx="11.4" ry="10.7"/>
						<path class="st1" d="M-400,300.8h-7.3c-0.9,0-1.7-0.8-1.7-1.7v-4.8c0-0.9,0.8-1.7,1.7-1.7h7.3c0.9,0,1.7,0.8,1.7,1.7v4.8
							C-398.3,300.1-399.1,300.8-400,300.8z"/>
					</g>
					<path class="st1" d="M-413.6,293.3c0,0,4.1,4.7,4.9,6.7c0.8,2,1-6.3,1-6.3L-413.6,293.3z"/>
					<path class="st1" d="M-393.8,293.3c0,0-4.1,4.7-4.9,6.7c-0.8,2-1-6.3-1-6.3L-393.8,293.3z"/>
				</g>
			</g>
			<path class="st1" d="M-403.9,272.3L-403.9,272.3c-0.9,0-1.6-0.7-1.6-1.6v-6.5c0-0.9,0.7-1.6,1.6-1.6l0,0c0.9,0,1.6,0.7,1.6,1.6
				v6.5C-402.3,271.6-403,272.3-403.9,272.3z"/>
			<path class="st1" d="M-413.5,275.8L-413.5,275.8c-0.6,0.6-1.6,0.6-2.2,0l-4.6-4.6c-0.6-0.7-0.6-1.7,0-2.3l0,0
				c0.6-0.6,1.6-0.6,2.2,0l4.6,4.6C-412.9,274.2-412.9,275.2-413.5,275.8z"/>
			<path class="st1" d="M-418.4,284.8L-418.4,284.8c0,0.9-0.7,1.6-1.6,1.6h-6.5c-0.9,0-1.6-0.7-1.6-1.6l0,0c0-0.9,0.7-1.6,1.6-1.6
				h6.6C-419.1,283.2-418.4,283.9-418.4,284.8z"/>
			<path class="st1" d="M-393.3,275.8L-393.3,275.8c0.6,0.6,1.6,0.6,2.2,0l4.6-4.6c0.6-0.6,0.6-1.6,0-2.2l0,0
				c-0.6-0.6-1.6-0.6-2.2,0l-4.6,4.5C-393.9,274.2-393.9,275.2-393.3,275.8z"/>
			<path class="st1" d="M-388.4,284.8L-388.4,284.8c0,0.9,0.7,1.6,1.6,1.6h6.5c0.9,0,1.6-0.7,1.6-1.6l0,0c0-0.9-0.7-1.6-1.6-1.6
				h-6.5C-387.7,283.2-388.4,283.9-388.4,284.8z"/>
		</g>
	</g>
</g>
</svg>
