<?xml version="1.0" encoding="utf-8"?>
<!-- Generator: Adobe Illustrator 19.0.1, SVG Export Plug-In . SVG Version: 6.00 Build 0)  -->
<svg version="1.1" id="Layer_1" xmlns="http://www.w3.org/2000/svg" xmlns:xlink="http://www.w3.org/1999/xlink" x="0px" y="0px"
	 viewBox="0 0 102.8 102.8" style="enable-background:new 0 0 102.8 102.8;" xml:space="preserve">
<style type="text/css">
	.st0{fill:#F9A11B;}
	.st1{fill:#FFFFFF;}
</style>
<g>
	<circle class="st0" cx="51.5" cy="51.3" r="50"/>
	<g>
		<path class="st1" d="M54,70.6V30.9c0-1.9-2.2-3-3.7-1.8L25.6,49c-1.1,0.9-1.1,2.6,0,3.5l24.8,19.9C51.8,73.6,54,72.5,54,70.6z"/>
		<path class="st1" d="M33.8,59.9h-8.9c-1.1,0-2-0.9-2-2V43.6c0-1.1,0.9-2,2-2h8.9c1.1,0,2,0.9,2,2v14.3
			C35.8,59,34.9,59.9,33.8,59.9z"/>
	</g>
	<g>
		<path class="st1" d="M58.9,40.7c0,0,0.4,0.1,0.9,0.5c0.6,0.4,1.4,0.9,2.2,1.8c0.4,0.4,0.8,0.9,1.2,1.5c0.4,0.6,0.8,1.2,1.1,1.9
			c0.6,1.4,1,3,1.1,4.7l0,0.3c0,0.2,0,0.2,0,0.3l0,0.6c0,0.4-0.1,0.8-0.1,1.2c-0.1,0.8-0.4,1.6-0.6,2.3c-0.1,0.4-0.3,0.7-0.4,1
			c-0.2,0.3-0.3,0.6-0.5,0.9c-0.4,0.6-0.8,1.1-1.1,1.6c-0.8,0.9-1.6,1.5-2.1,1.9c-0.6,0.4-0.9,0.6-0.9,0.6s0.3-0.3,0.6-0.8
			c0.2-0.3,0.4-0.6,0.7-1c0.3-0.4,0.5-0.8,0.8-1.3c0.3-0.5,0.5-1,0.8-1.6c0.2-0.6,0.4-1.2,0.6-1.8c0.2-0.6,0.3-1.3,0.4-2
			c0-0.3,0.1-0.6,0.1-1l0-0.6c0-0.1,0-0.2,0-0.2l0-0.3c0-0.7-0.1-1.4-0.2-2.1c-0.1-0.7-0.3-1.4-0.5-2c-0.2-0.6-0.5-1.2-0.7-1.8
			c-0.3-0.6-0.6-1.1-0.8-1.6c-0.6-0.9-1.1-1.7-1.6-2.2C59.1,41,58.9,40.7,58.9,40.7z"/>
	</g>
	<g>
		<path class="st1" d="M63.1,36.1c0,0,0.5,0.2,1.4,0.7c0.4,0.2,1,0.5,1.5,0.9c0.6,0.4,1.2,0.8,1.9,1.4c0.7,0.6,1.4,1.2,2,1.9
			c0.7,0.7,1.3,1.6,1.9,2.5c0.3,0.5,0.6,1,0.8,1.5l0.4,0.8c0.1,0.3,0.2,0.6,0.3,0.8c0.1,0.3,0.2,0.6,0.3,0.8l0.2,0.9
			c0.1,0.6,0.2,1.2,0.2,1.8c0,0.3,0.1,0.6,0,0.9l0,0.8c0,0.5-0.1,1.2-0.2,1.8c-0.2,1.2-0.6,2.3-1.1,3.3c-0.5,1-1.1,1.9-1.7,2.7
			c-0.6,0.8-1.2,1.5-1.9,2.1c-1.3,1.2-2.5,2-3.3,2.5c-0.9,0.5-1.4,0.7-1.4,0.7s0.4-0.4,1.2-1c0.7-0.7,1.7-1.7,2.7-2.9
			c0.3-0.3,0.5-0.7,0.8-1c0.3-0.4,0.5-0.7,0.7-1.1c0.5-0.8,0.9-1.7,1.3-2.6c0.2-0.5,0.3-0.9,0.5-1.4c0.1-0.5,0.3-1,0.3-1.5
			c0.1-0.5,0.2-0.9,0.2-1.5l0-0.8c0-0.2,0-0.5,0-0.7c0-0.5-0.1-1-0.2-1.5l-0.1-0.8c-0.1-0.2-0.1-0.5-0.2-0.7c-0.1-0.5-0.3-1-0.5-1.4
			c-0.2-0.5-0.4-0.9-0.6-1.4c-0.9-1.8-2.1-3.3-3.2-4.5c-0.6-0.6-1.1-1.1-1.6-1.6c-0.5-0.5-0.9-0.9-1.3-1.2
			C63.6,36.4,63.1,36.1,63.1,36.1z"/>
	</g>
	<g>
		<path class="st1" d="M70.4,31.4c0,0,0.7,0.3,1.8,0.9c0.5,0.3,1.2,0.7,1.9,1.2c0.7,0.5,1.5,1.1,2.4,1.8c0.8,0.7,1.7,1.5,2.5,2.5
			c0.8,0.9,1.7,2,2.4,3.2c0.3,0.6,0.7,1.2,1,1.9c0.1,0.3,0.3,0.7,0.5,1c0.1,0.3,0.2,0.7,0.3,1c0.1,0.4,0.2,0.7,0.3,1.1l0.2,1.1
			c0.1,0.4,0.2,0.7,0.2,1.1l0.1,1.1c0,0.4,0.1,0.7,0,1.2L84,51.4c0,0.7-0.2,1.5-0.3,2.2c-0.1,0.8-0.4,1.4-0.6,2.1
			c-0.2,0.7-0.5,1.3-0.8,2c-0.6,1.3-1.3,2.4-2.1,3.4c-0.7,1-1.5,1.9-2.3,2.6c-0.8,0.8-1.5,1.4-2.2,1.9c-0.7,0.5-1.3,0.9-1.9,1.3
			c-1.1,0.7-1.7,0.9-1.7,0.9s0.6-0.4,1.5-1.3c0.9-0.8,2.2-2.1,3.5-3.7c0.3-0.4,0.7-0.8,1-1.3c0.3-0.4,0.7-0.9,1-1.4
			c0.6-1,1.2-2.1,1.7-3.3c0.2-0.6,0.4-1.2,0.6-1.8c0.1-0.3,0.2-0.6,0.2-0.9c0.1-0.3,0.2-0.6,0.2-0.9c0.1-0.6,0.2-1.2,0.2-2l0-1.1
			c0-0.2,0-0.6-0.1-1l-0.1-1c0-0.3-0.1-0.7-0.2-1l-0.2-1c-0.1-0.3-0.2-0.6-0.3-1L81,44.4c-0.1-0.3-0.2-0.6-0.4-0.9
			c-0.2-0.6-0.5-1.2-0.8-1.7c-0.6-1.1-1.3-2.2-2-3.1c-0.7-0.9-1.4-1.8-2.1-2.6c-0.7-0.8-1.4-1.4-2-2C73,33.5,72.4,33,72,32.6
			C71,31.8,70.4,31.4,70.4,31.4z"/>
	</g>
</g>
</svg>
