<?xml version="1.0" encoding="utf-8"?>
<!-- Generator: Adobe Illustrator 19.0.1, SVG Export Plug-In . SVG Version: 6.00 Build 0)  -->
<svg version="1.1" id="Layer_1" xmlns="http://www.w3.org/2000/svg" xmlns:xlink="http://www.w3.org/1999/xlink" x="0px" y="0px"
	 viewBox="0 0 102.8 102.8" style="enable-background:new 0 0 102.8 102.8;" xml:space="preserve">
<style type="text/css">
	.st0{fill:#F9A11B;}
	.st1{fill:#FFFFFF;}
</style>
<circle class="st0" cx="51.5" cy="51.3" r="50"/>
<g>
	<path class="st1" d="M54,70.6V30.9c0-1.9-2.2-3-3.7-1.8L25.6,49c-1.1,0.9-1.1,2.6,0,3.5l24.8,19.9C51.8,73.6,54,72.5,54,70.6z"/>
	<path class="st1" d="M33.8,59.9h-8.9c-1.1,0-2-0.9-2-2V43.6c0-1.1,0.9-2,2-2h8.9c1.1,0,2,0.9,2,2v14.3C35.8,59,34.9,59.9,33.8,59.9
		z"/>
</g>
<g>
	<g>
		<path class="st1" d="M58.8,39c0,0,1.6,1.3,3.7,3.5c1.1,1.1,2.3,2.3,3.6,3.7c0.6,0.7,1.3,1.4,1.9,2.2c0.6,0.7,1.3,1.5,2,2.3
			c0.6,0.8,1.3,1.5,1.9,2.3c0.6,0.8,1.2,1.5,1.8,2.3c1.2,1.5,2.2,2.9,3.1,4.1c1.8,2.5,2.8,4.2,2.8,4.2s-1.6-1.3-3.7-3.5
			c-1.1-1.1-2.3-2.3-3.6-3.7c-0.6-0.7-1.3-1.4-1.9-2.2c-0.6-0.7-1.3-1.5-2-2.3c-0.6-0.8-1.3-1.5-1.9-2.3c-0.6-0.8-1.2-1.5-1.8-2.3
			c-1.2-1.5-2.2-2.9-3.1-4.1C59.8,40.7,58.8,39,58.8,39z"/>
	</g>
	<g>
		<path class="st1" d="M79.5,39c0,0-1,1.7-2.8,4.2c-0.9,1.2-1.9,2.6-3.1,4.1c-0.6,0.7-1.2,1.5-1.8,2.3c-0.6,0.8-1.3,1.5-1.9,2.3
			c-0.7,0.8-1.3,1.5-2,2.3c-0.6,0.8-1.3,1.5-1.9,2.2c-1.3,1.4-2.5,2.7-3.6,3.7c-2.1,2.1-3.7,3.5-3.7,3.5s1-1.7,2.8-4.2
			c0.9-1.2,1.9-2.6,3.1-4.1c0.6-0.7,1.2-1.5,1.8-2.3c0.6-0.8,1.3-1.5,1.9-2.3c0.7-0.8,1.3-1.5,2-2.3c0.6-0.8,1.3-1.5,1.9-2.2
			c1.3-1.4,2.5-2.7,3.6-3.7C77.9,40.3,79.5,39,79.5,39z"/>
	</g>
</g>
</svg>
