<?xml version="1.0" encoding="utf-8"?>
<!-- Generator: Adobe Illustrator 19.0.1, SVG Export Plug-In . SVG Version: 6.00 Build 0)  -->
<svg version="1.1" id="Layer_1" xmlns="http://www.w3.org/2000/svg" xmlns:xlink="http://www.w3.org/1999/xlink" x="0px" y="0px"
	 viewBox="0 0 500 500" style="enable-background:new 0 0 500 500;" xml:space="preserve">
<style type="text/css">
	.st0{fill:url(#SVGID_1_);}
	.st1{fill:url(#SVGID_2_);}
	.st2{opacity:0.33;fill:#FFFFFF;}
	.st3{fill:#FFFFFF;stroke:#999999;stroke-width:10;stroke-miterlimit:10;}
</style>
<linearGradient id="SVGID_1_" gradientUnits="userSpaceOnUse" x1="250.6944" y1="484.2222" x2="250.6944" y2="6.5">
	<stop  offset="0" style="stop-color:#919191"/>
	<stop  offset="1" style="stop-color:#5E5E5E"/>
	<stop  offset="1" style="stop-color:#000000"/>
</linearGradient>
<circle class="st0" cx="250.7" cy="245.4" r="238.9"/>
<linearGradient id="SVGID_2_" gradientUnits="userSpaceOnUse" x1="249.8333" y1="18.5" x2="249.8333" y2="468.5">
	<stop  offset="0" style="stop-color:#FFFFFF"/>
	<stop  offset="1" style="stop-color:#4F4F4F"/>
	<stop  offset="1" style="stop-color:#000000"/>
	<stop  offset="1" style="stop-color:#757575"/>
</linearGradient>
<circle class="st1" cx="249.8" cy="243.5" r="225"/>
<ellipse class="st2" cx="249.8" cy="187.8" rx="222.8" ry="147.3"/>
<g>
	<g>
		<path class="st3" d="M185.1,411v-18.9c17.3-0.6,27.3-1.7,30-3.2c2.7-1.5,4.4-5.8,5.2-12.9c1.2-9.7,1.8-31,1.8-64.1
			c0-14.3-0.2-27.5-0.7-39.6l-0.7-27c0-8.9-1-14.4-2.9-16.5c-1.9-2.1-7.1-3.3-15.5-3.6l-17.3-0.7v-17.7c37-2.8,67.4-9.4,91.4-19.8
			l5.8,4.6c-2.3,29.4-3.5,72.1-3.5,128.2c0,32.4,0.5,52.1,1.6,58.8c0.8,4.8,2.2,7.8,4.2,9.2c2.1,1.4,12.1,2.8,30.1,4.1V411
			c-27.7-0.9-49.1-1.4-64.2-1.4C242.3,409.6,220.5,410,185.1,411z M249,77c9.8,0,18.2,3.5,25.2,10.5c7,7,10.5,15.5,10.5,25.4
			c0,9.8-3.5,18.2-10.5,25.2c-7,7-15.5,10.5-25.4,10.5c-9.8,0-18.2-3.5-25.2-10.5c-7-7-10.5-15.4-10.5-25.2c0-10,3.5-18.4,10.5-25.4
			C230.6,80.5,239.1,77,249,77z"/>
	</g>
</g>
</svg>
