<?xml version="1.0" encoding="utf-8"?>
<!-- Generator: Adobe Illustrator 19.0.1, SVG Export Plug-In . SVG Version: 6.00 Build 0)  -->
<svg version="1.1" id="Layer_1" xmlns="http://www.w3.org/2000/svg" xmlns:xlink="http://www.w3.org/1999/xlink" x="0px" y="0px"
	 viewBox="283 175 101 99" style="enable-background:new 283 175 101 99;" xml:space="preserve">
<style type="text/css">
	.st0{fill:#FEA100;}
</style>
<g>
	<g>
		<path class="st0" d="M370.5,264.2l-35.1-39.7c-2.8-3.2-4.2-7.2-3.2-8.9l0,0c1-1.7,4.1-0.6,7,2.6l35.1,39.7
			c2.8,3.2,4.2,7.2,3.2,8.9l0,0C376.4,268.5,373.3,267.3,370.5,264.2z"/>
	</g>
	<g>
		<path class="st0" d="M297.1,264.2l35.1-39.7c2.8-3.2,4.2-7.2,3.2-8.9l0,0c-1-1.7-4.1-0.6-7,2.6l-35.1,39.7
			c-2.8,3.2-4.2,7.2-3.2,8.9l0,0C291.2,268.5,294.3,267.3,297.1,264.2z"/>
	</g>
</g>
<g>
	<g>
		<path class="st0" d="M371.5,229.2l-35.1-39.7c-2.8-3.2-4.2-7.2-3.2-8.9l0,0c1-1.7,4.1-0.6,7,2.6l35.1,39.7
			c2.8,3.2,4.2,7.2,3.2,8.9l0,0C377.4,233.5,374.3,232.3,371.5,229.2z"/>
	</g>
	<g>
		<path class="st0" d="M298.1,229.2l35.1-39.7c2.8-3.2,4.2-7.2,3.2-8.9l0,0c-1-1.7-4.1-0.6-7,2.6l-35.1,39.7
			c-2.8,3.2-4.2,7.2-3.2,8.9l0,0C292.2,233.5,295.3,232.3,298.1,229.2z"/>
	</g>
</g>
</svg>
