<?xml version="1.0" encoding="utf-8"?>
<!-- Generator: Adobe Illustrator 19.0.1, SVG Export Plug-In . SVG Version: 6.00 Build 0)  -->
<svg version="1.1" id="Layer_1" xmlns="http://www.w3.org/2000/svg" xmlns:xlink="http://www.w3.org/1999/xlink" x="0px" y="0px"
	 viewBox="0 0 150 117" style="enable-background:new 0 0 150 117;" xml:space="preserve">
<style type="text/css">
	.st0{fill:#FFFFFF;}
</style>
<path class="st0" d="M133.9,65.7H19.3c-3.8,0-6.9-3.1-6.9-6.9V58c0-3.8,3.1-6.9,6.9-6.9h114.6c3.8,0,6.9,3.1,6.9,6.9v0.8
	C140.8,62.6,137.7,65.7,133.9,65.7z"/>
<path class="st0" d="M130.3,65.1L71.4,22.7c-2.7-1.9-3.3-5.7-1.4-8.3l1.6-2.2c1.9-2.7,5.7-3.3,8.3-1.4l58.9,42.4
	c2.7,1.9,3.3,5.7,1.4,8.3l-1.6,2.2C136.7,66.4,133,67,130.3,65.1z"/>
<path class="st0" d="M80,106.4L138.9,64c2.7-1.9,3.3-5.7,1.4-8.3l-1.6-2.2c-1.9-2.7-5.7-3.3-8.3-1.4L71.4,94.6
	c-2.7,1.9-3.3,5.7-1.4,8.3l1.6,2.2C73.5,107.7,77.3,108.4,80,106.4z"/>
</svg>
