<?xml version="1.0" encoding="utf-8"?>
<!-- Generator: Adobe Illustrator 16.0.0, SVG Export Plug-In . SVG Version: 6.00 Build 0)  -->
<!DOCTYPE svg PUBLIC "-//W3C//DTD SVG 1.1//EN" "http://www.w3.org/Graphics/SVG/1.1/DTD/svg11.dtd">
<svg version="1.1" id="Layer_1" xmlns="http://www.w3.org/2000/svg" xmlns:xlink="http://www.w3.org/1999/xlink" x="0px" y="0px"
	 width="30px" height="30px" viewBox="0 0 30 30" enable-background="new 0 0 30 30" xml:space="preserve">
<g>
	<g>
		<path fill="#FFFFFF" d="M15,0C6.716,0,0,6.716,0,15s6.716,15,15,15s15-6.716,15-15S23.284,0,15,0z M14.781,27.562
			C7.723,27.562,2,21.84,2,14.781C2,7.722,7.723,2,14.781,2c7.058,0,12.781,5.723,12.781,12.781
			C27.562,21.839,21.84,27.562,14.781,27.562z"/>
	</g>
</g>
<g>
	<polygon fill="#FFFFFF" points="19.5,7 15,4.071 10.5,7 14,7 14,9 16,9 16,7 	"/>
</g>
<g>
	<polygon fill="#FFFFFF" points="10.5,23 15,25.971 19.5,23 16,23 16,21 14,21 14,23 	"/>
</g>
<g>
	<polygon fill="#FFFFFF" points="9,14 7,14 7,10.758 4.071,15 7,19.242 7,16 9,16 	"/>
</g>
<g>
	<polygon fill="#FFFFFF" points="21,16 23,16 23,19.242 25.93,14.742 23,10.242 23,14 21,14 	"/>
</g>
</svg>
