<?xml version="1.0" encoding="utf-8"?>
<!-- Generator: Adobe Illustrator 16.0.0, SVG Export Plug-In . SVG Version: 6.00 Build 0)  -->
<!DOCTYPE svg PUBLIC "-//W3C//DTD SVG 1.1//EN" "http://www.w3.org/Graphics/SVG/1.1/DTD/svg11.dtd">
<svg version="1.1" id="Layer_1" xmlns="http://www.w3.org/2000/svg" xmlns:xlink="http://www.w3.org/1999/xlink" x="0px" y="0px"
	 width="30px" height="30px" viewBox="0 0 32 32" enable-background="new 0 0 30 30" xml:space="preserve">
<ellipse fill="none" stroke="#FFFFFF" stroke-width="2" stroke-miterlimit="10" cx="15" cy="15" rx="15" ry="15"/>
<g>
	<g>
		<path d="M21.605,22.518c0,0.11-0.09,0.2-0.2,0.2h-2.561c-0.11,0-0.2-0.09-0.2-0.2V7.957c0-0.11,0.09-0.2,0.2-0.2h2.561
			c0.11,0,0.2,0.09,0.2,0.2V22.518z"/>
		<path fill="#FFFFFF" stroke="#FFFFFF" stroke-miterlimit="10" d="M21.605,22.518c0,0.11-0.09,0.2-0.2,0.2h-2.561
			c-0.11,0-0.2-0.09-0.2-0.2V7.957c0-0.11,0.09-0.2,0.2-0.2h2.561c0.11,0,0.2,0.09,0.2,0.2V22.518z"/>
	</g>
	<g>
		<path d="M12.293,22.518c0,0.11-0.09,0.2-0.2,0.2H9.531c-0.11,0-0.2-0.09-0.2-0.2V7.957c0-0.11,0.09-0.2,0.2-0.2h2.562
			c0.11,0,0.2,0.09,0.2,0.2V22.518z"/>
		<path fill="#FFFFFF" stroke="#FFFFFF" stroke-miterlimit="10" d="M12.293,22.518c0,0.11-0.09,0.2-0.2,0.2H9.531
			c-0.11,0-0.2-0.09-0.2-0.2V7.957c0-0.11,0.09-0.2,0.2-0.2h2.562c0.11,0,0.2,0.09,0.2,0.2V22.518z"/>
	</g>
</g>
</svg>
