<?xml version="1.0" encoding="utf-8"?>
<!-- Generator: Adobe Illustrator 19.0.1, SVG Export Plug-In . SVG Version: 6.00 Build 0)  -->
<svg version="1.1" id="Layer_1" xmlns="http://www.w3.org/2000/svg" xmlns:xlink="http://www.w3.org/1999/xlink" x="0px" y="0px"
	 viewBox="0 0 500 500" style="enable-background:new 0 0 500 500;" xml:space="preserve">
<style type="text/css">
	.st0{fill:#999999;}
	.st1{fill:#FFFFFF;}
</style>
<circle class="st0" cx="249.8" cy="243.5" r="225"/>
<g>
	<g>
		<path class="st1" d="M193.5,389.2v-16.5c15.1-0.5,23.9-1.5,26.2-2.8c2.3-1.3,3.8-5.1,4.5-11.3c1.1-8.4,1.6-27.1,1.6-55.9
			c0-12.5-0.2-24-0.6-34.6l-0.6-23.5c0-7.8-0.8-12.6-2.5-14.4c-1.7-1.8-6.2-2.8-13.6-3.1l-15.1-0.6v-15.5
			c32.3-2.4,58.8-8.2,79.7-17.3l5,4c-2,25.6-3,62.9-3,111.9c0,28.3,0.5,45.4,1.4,51.3c0.7,4.2,1.9,6.8,3.7,8.1
			c1.8,1.2,10.5,2.4,26.2,3.6v16.5c-24.1-0.8-42.8-1.2-56-1.2C243.4,388,224.4,388.4,193.5,389.2z M249.3,97.8c8.6,0,15.9,3,22,9.1
			c6.1,6.1,9.1,13.5,9.1,22.2c0,8.6-3,15.9-9.1,22c-6.1,6.1-13.5,9.1-22.2,9.1c-8.6,0-15.9-3-22-9.1c-6.1-6.1-9.1-13.4-9.1-22
			c0-8.7,3-16.1,9.1-22.2C233.2,100.9,240.6,97.8,249.3,97.8z"/>
	</g>
</g>
</svg>
