<?xml version="1.0" encoding="utf-8"?>
<!-- Generator: Adobe Illustrator 19.1.0, SVG Export Plug-In . SVG Version: 6.00 Build 0)  -->
<svg version="1.1" id="Layer_1" xmlns="http://www.w3.org/2000/svg" xmlns:xlink="http://www.w3.org/1999/xlink" x="0px" y="0px"
	 viewBox="0 0 55.4 55.4" style="enable-background:new 0 0 55.4 55.4;" xml:space="preserve">
<style type="text/css">
	.st0{fill:none;stroke:#D99B3B;stroke-width:3;stroke-miterlimit:10;}
	.st1{fill:#D99B3B;}
</style>
<g>
	<circle class="st0" cx="27.7" cy="27.7" r="26.2"/>
	<g>
		<g>
			<path class="st1" d="M24.5,40.9V13.3c0-1.3-1.2-2.1-2-1.3L8.9,25.9c-0.6,0.6-0.6,1.8,0,2.4l13.7,13.9
				C23.3,43,24.5,42.3,24.5,40.9z"/>
			<path class="st1" d="M13.4,33.5H8.5c-0.6,0-1.1-0.6-1.1-1.4v-10c0-0.8,0.5-1.4,1.1-1.4h4.9c0.6,0,1.1,0.6,1.1,1.4v10
				C14.5,32.9,14,33.5,13.4,33.5z"/>
		</g>
		<g>
			<g>
				<path class="st1" d="M28.2,19.4c0,0,0.3,0.1,0.7,0.4c0.5,0.3,1.1,0.7,1.7,1.4c0.3,0.3,0.6,0.7,0.9,1.2c0.3,0.5,0.6,0.9,0.9,1.5
					c0.5,1.1,0.8,2.4,0.9,3.7v0.2c0,0.2,0,0.2,0,0.2v0.5c0,0.3-0.1,0.6-0.1,0.9c-0.1,0.6-0.3,1.3-0.5,1.8c-0.1,0.3-0.2,0.6-0.3,0.8
					c-0.2,0.2-0.2,0.5-0.4,0.7c-0.3,0.5-0.6,0.9-0.9,1.3c-0.6,0.7-1.3,1.2-1.7,1.5c-0.5,0.3-0.7,0.5-0.7,0.5s0.2-0.2,0.5-0.6
					c0.2-0.2,0.3-0.5,0.6-0.8c0.2-0.3,0.4-0.6,0.6-1c0.2-0.4,0.4-0.8,0.6-1.3c0.2-0.5,0.3-0.9,0.5-1.4c0.2-0.5,0.2-1,0.3-1.6
					c0-0.2,0.1-0.5,0.1-0.8v-0.5c0-0.1,0-0.2,0-0.2v-0.2c0-0.6-0.1-1.1-0.2-1.7c-0.1-0.6-0.2-1.1-0.4-1.6C31.3,24,31,23.5,30.9,23
					c-0.2-0.5-0.5-0.9-0.6-1.3c-0.5-0.7-0.9-1.3-1.3-1.7C28.4,19.6,28.2,19.4,28.2,19.4z"/>
			</g>
		</g>
		<g>
			<g>
				<path class="st1" d="M31.5,15.8c0,0,0.4,0.2,1.1,0.6c0.3,0.2,0.8,0.4,1.2,0.7c0.5,0.3,0.9,0.6,1.5,1.1c0.6,0.5,1.1,0.9,1.6,1.5
					c0.6,0.6,1,1.3,1.5,2c0.2,0.4,0.5,0.8,0.6,1.2l0.3,0.6c0.1,0.2,0.2,0.5,0.2,0.6c0.1,0.2,0.2,0.5,0.2,0.6l0.2,0.7
					c0.1,0.5,0.2,0.9,0.2,1.4c0,0.2,0.1,0.5,0,0.7v0.6c0,0.4-0.1,0.9-0.2,1.4c-0.2,0.9-0.5,1.8-0.9,2.6c-0.4,0.8-0.9,1.5-1.3,2.1
					c-0.5,0.6-0.9,1.2-1.5,1.7c-1,0.9-2,1.6-2.6,2c-0.7,0.4-1.1,0.6-1.1,0.6s0.3-0.3,0.9-0.8c0.6-0.6,1.3-1.3,2.1-2.3
					c0.2-0.2,0.4-0.6,0.6-0.8c0.2-0.3,0.4-0.6,0.6-0.9c0.4-0.6,0.7-1.3,1-2c0.2-0.4,0.2-0.7,0.4-1.1c0.1-0.4,0.2-0.8,0.2-1.2
					c0.1-0.4,0.2-0.7,0.2-1.2v-0.6c0-0.2,0-0.4,0-0.6c0-0.4-0.1-0.8-0.2-1.2l-0.1-0.6c-0.1-0.2-0.1-0.4-0.2-0.6
					c-0.1-0.4-0.2-0.8-0.4-1.1c-0.2-0.4-0.3-0.7-0.5-1.1c-0.7-1.4-1.7-2.6-2.5-3.5c-0.5-0.5-0.9-0.9-1.3-1.3c-0.4-0.4-0.7-0.7-1-0.9
					C31.9,16,31.5,15.8,31.5,15.8z"/>
			</g>
		</g>
		<g>
			<g>
				<path class="st1" d="M37.3,12.1c0,0,0.6,0.2,1.4,0.7c0.4,0.2,0.9,0.6,1.5,0.9c0.6,0.4,1.2,0.9,1.9,1.4c0.6,0.6,1.3,1.2,2,2
					c0.6,0.7,1.3,1.6,1.9,2.5c0.2,0.5,0.6,0.9,0.8,1.5c0.1,0.2,0.2,0.6,0.4,0.8c0.1,0.2,0.2,0.6,0.2,0.8c0.1,0.3,0.2,0.6,0.2,0.9
					l0.2,0.9c0.1,0.3,0.2,0.6,0.2,0.9l0.1,0.9c0,0.3,0.1,0.6,0,0.9l0,0.7c0,0.6-0.2,1.2-0.2,1.7c-0.1,0.6-0.3,1.1-0.5,1.7
					c-0.2,0.6-0.4,1-0.6,1.6c-0.5,1-1,1.9-1.7,2.7c-0.6,0.8-1.2,1.5-1.8,2c-0.6,0.6-1.2,1.1-1.7,1.5c-0.6,0.4-1,0.7-1.5,1
					c-0.9,0.6-1.3,0.7-1.3,0.7s0.5-0.3,1.2-1c0.7-0.6,1.7-1.7,2.8-2.9c0.2-0.3,0.6-0.6,0.8-1c0.2-0.3,0.6-0.7,0.8-1.1
					c0.5-0.8,0.9-1.7,1.3-2.6c0.2-0.5,0.3-0.9,0.5-1.4c0.1-0.2,0.2-0.5,0.2-0.7c0.1-0.2,0.2-0.5,0.2-0.7c0.1-0.5,0.2-0.9,0.2-1.6
					v-0.9c0-0.2,0-0.5-0.1-0.8l-0.1-0.8c0-0.2-0.1-0.6-0.2-0.8l-0.2-0.8c-0.1-0.2-0.2-0.5-0.2-0.8l-0.1-0.6
					c-0.1-0.2-0.2-0.5-0.3-0.7c-0.2-0.5-0.4-0.9-0.6-1.3c-0.5-0.9-1-1.7-1.6-2.4c-0.6-0.7-1.1-1.4-1.7-2c-0.6-0.6-1.1-1.1-1.6-1.6
					c-0.6-0.5-1-0.9-1.3-1.2C37.7,12.4,37.3,12.1,37.3,12.1z"/>
			</g>
		</g>
	</g>
</g>
</svg>
