<?xml version="1.0" encoding="utf-8"?>
<!-- Generator: Adobe Illustrator 19.1.0, SVG Export Plug-In . SVG Version: 6.00 Build 0)  -->
<svg version="1.1" id="Layer_1" xmlns="http://www.w3.org/2000/svg" xmlns:xlink="http://www.w3.org/1999/xlink" x="0px" y="0px"
	 viewBox="-451 253.6 55.4 55.4" style="enable-background:new -451 253.6 55.4 55.4;" xml:space="preserve">
<style type="text/css">
	.st0{fill:none;stroke:#D99B3B;stroke-width:3;stroke-miterlimit:10;}
	.st1{fill:#D99B3B;}
</style>
<g>
	<circle class="st0" cx="-423.3" cy="281.3" r="26.2"/>
	<g>
		<g>
			<path class="st1" d="M-426.5,294.5v-27.6c0-1.3-1.2-2.1-2-1.3l-13.6,13.9c-0.6,0.6-0.6,1.8,0,2.4l13.7,13.9
				C-427.7,296.6-426.5,295.9-426.5,294.5z"/>
			<path class="st1" d="M-437.6,287.1h-4.9c-0.6,0-1.1-0.6-1.1-1.4v-10c0-0.8,0.5-1.4,1.1-1.4h4.9c0.6,0,1.1,0.6,1.1,1.4v10
				C-436.5,286.5-437,287.1-437.6,287.1z"/>
		</g>
		<g>
			
				<rect x="-414.6" y="271" transform="matrix(0.7071 -0.7071 0.7071 0.7071 -319.9193 -209.7165)" class="st1" width="3" height="20.6"/>
			
				<rect x="-414.6" y="271" transform="matrix(-0.7071 -0.7071 0.7071 -0.7071 -904.1449 188.1279)" class="st1" width="3" height="20.6"/>
		</g>
	</g>
</g>
</svg>
