<?xml version="1.0" encoding="utf-8"?>
<!-- Generator: Adobe Illustrator 16.0.0, SVG Export Plug-In . SVG Version: 6.00 Build 0)  -->
<!DOCTYPE svg PUBLIC "-//W3C//DTD SVG 1.1//EN" "http://www.w3.org/Graphics/SVG/1.1/DTD/svg11.dtd">
<svg version="1.1" id="Layer_1" xmlns="http://www.w3.org/2000/svg" xmlns:xlink="http://www.w3.org/1999/xlink" x="0px" y="0px"
	 width="30px" height="30px" viewBox="0 0 30 30" enable-background="new 0 0 30 30" xml:space="preserve">
<g>
	<g>
		<g>
			<path fill="#FFFFFF" d="M15,0C6.716,0,0,6.716,0,15s6.716,15,15,15s15-6.716,15-15S23.284,0,15,0z M14.833,27.916
				C7.774,27.916,2,21.84,2,14.781C2,7.722,7.723,2,14.781,2c7.058,0,13.135,5.774,13.135,12.833
				C27.916,21.891,21.893,27.916,14.833,27.916z"/>
			<path fill="#FFFFFF" d="M8.206,12H5.125c0,0-0.656,0.031-0.875,0.25S4,12.969,4,12.969v5c0,0-0.062,0.438,0.172,0.719
				C4.406,18.969,4.905,19,4.905,19h3.296C10.395,21.514,13,24.24,13,23.023c0-2.104,0-13.315,0-15.13
				C13,6.844,10.399,9.54,8.206,12z"/>
			<path fill="#3F3F3F" d="M17.907,7.651c-0.06-0.062-0.579,0.068-0.985,0.427c-0.406,0.359-0.523,0.895-0.438,0.991
				c2.994,3.301,2.932,8.391-0.193,11.617c-0.032,0.032,0.092,0.744,0.471,1.076s1.071,0.443,1.124,0.389
				C21.766,18.102,21.773,11.708,17.907,7.651z"/>
			<path fill="#3F3F3F" d="M16.566,14.763c-0.075-1.463-0.621-2.907-1.679-4.06c-0.063-0.069-0.651,0.077-1.028,0.437
				c-0.377,0.36-0.497,0.856-0.403,0.949c1.646,1.648,1.75,4.257,0.309,6.022c-0.097,0.119-0.033,0.652,0.304,0.957
				c0.337,0.307,0.792,0.449,0.873,0.357c1.074-1.199,1.613-2.701,1.639-4.211C16.584,15.064,16.574,14.914,16.566,14.763z"/>
			<path fill="#3F3F3F" d="M21.297,4.502c-0.091-0.097-0.484-0.214-1.088,0.288s-0.536,0.916-0.445,1.013
				c4.682,5.022,4.784,13.151-0.1,18.035c-0.021,0.021-0.044,0.043-0.066,0.062c-0.119,0.113-0.035,0.713,0.375,1.072
				c0.411,0.357,0.947,0.557,1.047,0.457C26.783,19.666,26.875,10.379,21.297,4.502z"/>
		</g>
	</g>
</g>
</svg>
