<?xml version="1.0" encoding="utf-8"?>
<!-- Generator: Adobe Illustrator 16.0.0, SVG Export Plug-In . SVG Version: 6.00 Build 0)  -->
<!DOCTYPE svg PUBLIC "-//W3C//DTD SVG 1.1//EN" "http://www.w3.org/Graphics/SVG/1.1/DTD/svg11.dtd">
<svg version="1.1" id="Layer_1" xmlns="http://www.w3.org/2000/svg" xmlns:xlink="http://www.w3.org/1999/xlink" x="0px" y="0px"
	 width="30px" height="30px" viewBox="0 0 30 30" enable-background="new 0 0 30 30" xml:space="preserve">
<g>
	<g>
		<g>
			<path fill="#FFFFFF" d="M21.414,15.307l2.861-2.861c0.373-0.375,0.373-0.98,0-1.354l-0.062-0.06c-0.375-0.374-0.98-0.375-1.354,0
				l-2.86,2.86l-2.858-2.858c-0.373-0.375-0.979-0.375-1.354,0l-0.061,0.059c-0.375,0.375-0.375,0.981,0,1.355l2.857,2.858
				l-2.855,2.856c-0.375,0.375-0.375,0.98,0,1.354l0.061,0.062c0.375,0.373,0.979,0.374,1.354,0L20,16.723l2.857,2.855
				c0.375,0.375,0.979,0.375,1.354,0l0.061-0.059c0.375-0.375,0.375-0.98,0-1.355L21.414,15.307z"/>
			<path fill="#FFFFFF" d="M15,0C6.716,0,0,6.716,0,15s6.716,15,15,15s15-6.716,15-15S23.284,0,15,0z M14.833,27.916
				C7.774,27.916,2,21.84,2,14.781C2,7.722,7.723,2,14.781,2c7.058,0,13.135,5.774,13.135,12.833
				C27.916,21.891,21.893,27.916,14.833,27.916z"/>
			<path fill="#FFFFFF" d="M8.206,12H5.125c0,0-0.656,0.031-0.875,0.25S4,12.969,4,12.969v5c0,0-0.062,0.438,0.172,0.719
				C4.406,18.969,4.905,19,4.905,19h3.296C10.395,21.514,13,24.24,13,23.023c0-2.104,0-13.315,0-15.13
				C13,6.844,10.399,9.54,8.206,12z"/>
		</g>
	</g>
</g>
</svg>
