<?xml version="1.0" encoding="utf-8"?>
<!-- Generator: Adobe Illustrator 16.0.0, SVG Export Plug-In . SVG Version: 6.00 Build 0)  -->
<!DOCTYPE svg PUBLIC "-//W3C//DTD SVG 1.1//EN" "http://www.w3.org/Graphics/SVG/1.1/DTD/svg11.dtd">
<svg version="1.1" id="Layer_1" xmlns="http://www.w3.org/2000/svg" xmlns:xlink="http://www.w3.org/1999/xlink" x="0px" y="0px"
	 width="200.979px" height="200.979px" viewBox="0 0 200.979 200.979" enable-background="new 0 0 200.979 200.979"
	 xml:space="preserve">
<path fill="#FFFFFF" d="M102.533,16.442v108.451l-0.013,8.153c-6.396-4.3-15.832-6.121-26.306-5.107
	c-18.233,1.757-35.182,18.094-33.171,34.679c1.639,13.526,19.824,18.862,37.557,14.241c16.688-4.343,28.562-14.121,30.183-25.707
	c0.55-2.475,0.964-5.635,1.007-9.646c0.1-9.639,0.057-66.761,0.021-96.924c3.404-0.589,12.395,4.212,20.979,13.926
	c10.819,12.225,10.084,21.971,11.627,29.138C156.002,39.659,102.533,16.442,102.533,16.442z"/>
</svg>
