<?xml version="1.0" encoding="utf-8"?>
<!-- Generator: Adobe Illustrator 17.1.0, SVG Export Plug-In . SVG Version: 6.00 Build 0)  -->
<!DOCTYPE svg PUBLIC "-//W3C//DTD SVG 1.1//EN" "http://www.w3.org/Graphics/SVG/1.1/DTD/svg11.dtd">
<svg version="1.1" id="Layer_1" xmlns="http://www.w3.org/2000/svg" xmlns:xlink="http://www.w3.org/1999/xlink" x="0px" y="0px"
	 viewBox="-169 -60 370 262" enable-background="new -169 -60 370 262" xml:space="preserve">
<rect x="-169" y="-60" fill="#212221" width="369.9" height="262"/>
<path fill="#FFFFFF" d="M15.1,21.1v69.4l0,5.2C11,92.9,4.9,91.7-1.8,92.4c-11.7,1.1-22.5,11.6-21.2,22.2c1,8.7,12.7,12.1,24,9.1
	c10.7-2.8,18.3-9,19.3-16.4c0.4-1.6,0.6-3.6,0.6-6.2c0.1-6.2,0-42.7,0-62c2.2-0.4,7.9,2.7,13.4,8.9c6.9,7.8,6.5,14.1,7.4,18.6
	C49.3,35.9,15.1,21.1,15.1,21.1z"/>
</svg>
