<?xml version="1.0" encoding="utf-8"?>
<!-- Generator: Adobe Illustrator 19.1.0, SVG Export Plug-In . SVG Version: 6.00 Build 0)  -->
<svg version="1.1" id="Layer_1" xmlns="http://www.w3.org/2000/svg" xmlns:xlink="http://www.w3.org/1999/xlink" x="0px" y="0px"
	 viewBox="0 0 86.3 21.9" style="enable-background:new 0 0 86.3 21.9;" xml:space="preserve">
<style type="text/css">
	.st0{fill:#D89A3A;}
</style>
<g>
	<path class="st0" d="M0.7,19.9C0.2,19.4,0,18.8,0,18c0-0.8,0.2-1.5,0.6-2.3c0.4-0.8,0.9-1.5,1.5-2.2c0.6-0.7,1.2-1.4,1.8-2
		c0.6-0.6,1.2-1.1,1.6-1.6c1.5-1.3,3-2.6,4.5-3.7c1.5-1.1,2.8-2.1,4.1-3c1.2-0.9,2.3-1.6,3.1-2.1c0.8-0.5,1.4-0.9,1.6-1v0H19
		c0.2,0,0.5,0.1,0.9,0.2c0.3,0.1,0.5,0.3,0.4,0.5c-0.6,0.8-1.2,1.6-1.7,2.4s-1,1.5-1.4,2.1c-0.4,0.6-0.7,1.1-1,1.6
		c-0.3,0.4-0.4,0.7-0.4,0.8h0c0,0-0.1,0-0.1,0h-0.3c-0.2,0-0.4,0-0.6,0c-0.2,0-0.3-0.1-0.3-0.3v0c0-0.1,0-0.2,0.1-0.4
		c0.1-0.2,0.1-0.3,0.1-0.5l0,0c0.2-0.3,0.4-0.7,0.8-1.3c0.4-0.6,0.9-1.2,1.5-1.8l-0.2,0.1c-1.8,1.2-3.6,2.5-5.4,3.8
		C9.5,8.4,7.7,9.8,6,11.3c-0.6,0.5-1.2,1-1.8,1.6c-0.6,0.5-1.1,1.1-1.6,1.6c-0.5,0.6-0.9,1.1-1.2,1.7c-0.3,0.6-0.5,1.2-0.5,1.8
		c0,0.8,0.3,1.4,0.8,1.8c0.5,0.4,1.2,0.7,1.9,0.9C4.3,20.9,5.1,21,5.9,21c0.8,0,1.5-0.1,2.1-0.3c0.5-0.1,0.9-0.2,1.4-0.4
		c0.5-0.2,0.9-0.4,1.3-0.5c0.4-0.2,0.7-0.3,1-0.5c0.3-0.1,0.4-0.2,0.4-0.2l0,0h0c0,0,0.1,0.1,0.4,0.2c0.3,0.1,0.4,0.3,0.4,0.6
		c0,0.1,0,0.2-0.1,0.3c-0.1,0.1-0.2,0.1-0.3,0.2c-0.1,0.1-0.2,0.2-0.5,0.3c-0.2,0.2-0.6,0.3-1,0.5c-0.4,0.2-1,0.4-1.6,0.5
		c-0.6,0.2-1.4,0.2-2.2,0.2c-0.5,0-1.1,0-1.7-0.1c-0.6-0.1-1.2-0.2-1.9-0.3c-0.6-0.1-1.2-0.3-1.8-0.6C1.5,20.7,1.1,20.3,0.7,19.9z"
		/>
	<path class="st0" d="M12.8,17.9c0-0.2,0-0.5,0.1-0.7c-0.3,0.2-0.7,0.4-1,0.5c-0.4,0.1-0.7,0.2-0.9,0.3c-0.3,0.1-0.6,0.2-0.9,0.3
		c0,0-0.1,0-0.1-0.1c0-0.1,0.1-0.1,0.2-0.2c0.6-0.2,1.2-0.6,1.9-0.9c0.6-0.4,1.2-0.8,1.7-1.3c0.8-0.8,1.4-1.4,1.9-1.7
		c0.5-0.3,0.8-0.5,1-0.5h0h0l0.1,0.1c0.1-0.1,0.1-0.1,0.3-0.1c0.1,0,0.2,0,0.3,0c0.6,0,1,0.2,1.2,0.6c0.2,0.4,0.4,0.9,0.4,1.3
		c0,0.7-0.2,1.3-0.5,1.9c0.1,0.1,0.2,0.1,0.4,0.1c0.2,0,0.4,0,0.6,0c0.5,0,0.9,0,1.1-0.1c0.3-0.1,0.4-0.1,0.4-0.1
		c0.1,0.1,0.2,0.1,0.2,0.2l0,0L21,17.7c-0.2,0.1-0.5,0.3-1,0.4c-0.5,0.2-1.1,0.3-1.8,0.3h0c-0.1,0-0.1,0-0.2,0c-0.1,0-0.1,0-0.2,0
		c-0.4,0.4-0.9,0.7-1.4,0.9c-0.5,0.2-1,0.3-1.5,0.3c-0.4,0-0.8-0.1-1.3-0.3C13,18.9,12.8,18.5,12.8,17.9z M14.3,17.8
		c0,0.1,0,0.2,0.1,0.3c0.1,0.1,0.3,0.1,0.6,0.1c0.2,0,0.5,0,0.7,0c0.2,0,0.5-0.1,0.7-0.3c-0.4-0.2-0.6-0.5-0.7-0.9
		c-0.1-0.4-0.2-0.7-0.2-0.9c-0.2,0.2-0.5,0.4-0.6,0.6c-0.2,0.2-0.3,0.4-0.5,0.6C14.4,17.3,14.3,17.6,14.3,17.8z M17.1,15.1
		c-0.1,0.2-0.2,0.5-0.2,0.9c0,0.1,0,0.3,0.1,0.5c0.1,0.2,0.2,0.4,0.5,0.6c0.2-0.2,0.4-0.5,0.5-0.9c0.1-0.4,0.2-0.7,0.2-1
		c0-0.2-0.1-0.5-0.3-0.7c-0.2-0.2-0.4-0.4-0.7-0.4c0,0.1,0,0.1,0.1,0.2c0.1,0.1,0.1,0.2,0.1,0.3c0,0.1-0.1,0.2-0.3,0.3h0
		C17.1,15,17.1,15,17.1,15.1C17.1,15,17.1,15,17.1,15.1z"/>
	<path class="st0" d="M21.3,18.3c-0.2-0.3-0.3-0.6-0.3-1c-0.3,0.2-0.7,0.4-1.1,0.6c-0.4,0.2-0.8,0.4-1.2,0.4c-0.1,0-0.1,0-0.1-0.1
		c0,0,0-0.1,0.1-0.1c0.1,0,0.2-0.1,0.4-0.2c0.2-0.1,0.4-0.2,0.7-0.4c0.3-0.2,0.7-0.4,1.2-0.8c0-0.2,0-0.3,0.1-0.5
		c0-0.2,0.1-0.3,0.2-0.5c0.2-0.5,0.6-1.2,1.4-2.3s1.6-2.2,2.6-3.5s2.1-2.6,3.3-4c1.2-1.4,2.3-2.6,3.4-3.7c0.1-0.1,0.2-0.1,0.3-0.1
		c0.1,0,0.3,0,0.5,0c0.3,0,0.5,0.1,0.8,0.3c0.2,0.2,0.4,0.5,0.4,1c0,0.8-0.4,1.8-1.1,2.9C32,7.5,31.1,8.7,30,9.9
		c-1.1,1.2-2.3,2.4-3.6,3.6c-1.3,1.1-2.5,2.1-3.7,2.9c-0.1,0.1-0.1,0.2-0.1,0.3c0,0.1,0,0.2-0.1,0.4c0,0.1,0,0.2,0,0.3
		c0,0.1,0,0.2,0.1,0.3c0.1,0.1,0.2,0.2,0.5,0.2c0.2,0.1,0.5,0.1,0.9,0c1.4-0.1,2.3-0.3,2.8-0.5c0.5-0.2,0.8-0.3,0.8-0.3
		c0.1,0,0.2,0.1,0.2,0.2l-0.2,0.2c-0.1,0.1-0.2,0.2-0.5,0.3c-0.3,0.1-0.6,0.3-1,0.5c-0.4,0.2-0.8,0.3-1.3,0.5
		c-0.5,0.2-0.9,0.3-1.4,0.4c-0.3,0-0.6,0-1-0.1C22.1,19,21.7,18.8,21.3,18.3z M23.3,15.1c0.3-0.2,0.8-0.6,1.4-1.2
		c0.6-0.5,1.2-1.1,1.9-1.8c0.7-0.7,1.4-1.4,2-2.2c0.7-0.8,1.3-1.6,1.9-2.3c0.6-0.8,1-1.5,1.4-2.2c0.4-0.7,0.5-1.3,0.5-1.8
		c-1.4,1.4-2.6,2.8-3.6,4c-1,1.2-1.9,2.5-2.9,3.7c-0.5,0.6-0.9,1.2-1.4,1.8C24.1,13.8,23.7,14.4,23.3,15.1L23.3,15.1z"/>
	<path class="st0" d="M27.7,18.3c-0.2-0.3-0.3-0.6-0.3-1c-0.3,0.2-0.7,0.4-1.1,0.6c-0.4,0.2-0.8,0.4-1.2,0.4c-0.1,0-0.1,0-0.1-0.1
		c0,0,0-0.1,0.1-0.1c0.1,0,0.2-0.1,0.4-0.2c0.2-0.1,0.4-0.2,0.7-0.4c0.3-0.2,0.7-0.4,1.2-0.8c0-0.2,0-0.3,0.1-0.5
		c0-0.2,0.1-0.3,0.2-0.5c0.2-0.5,0.6-1.2,1.4-2.3c0.7-1.1,1.6-2.2,2.6-3.5s2.1-2.6,3.3-4c1.2-1.4,2.3-2.6,3.4-3.7
		c0.1-0.1,0.2-0.1,0.3-0.1c0.1,0,0.3,0,0.5,0c0.3,0,0.5,0.1,0.8,0.3c0.2,0.2,0.4,0.5,0.4,1c0,0.8-0.4,1.8-1.1,2.9
		c-0.7,1.2-1.6,2.4-2.7,3.6c-1.1,1.2-2.3,2.4-3.6,3.6c-1.3,1.1-2.5,2.1-3.7,2.9c-0.1,0.1-0.1,0.2-0.1,0.3c0,0.1,0,0.2-0.1,0.4
		c0,0.1,0,0.2,0,0.3c0,0.1,0,0.2,0.1,0.3c0.1,0.1,0.2,0.2,0.5,0.2c0.2,0.1,0.5,0.1,0.9,0c1.4-0.1,2.3-0.3,2.8-0.5
		c0.5-0.2,0.8-0.3,0.8-0.3c0.1,0,0.2,0.1,0.2,0.2L34,17.5c-0.1,0.1-0.2,0.2-0.5,0.3c-0.3,0.1-0.6,0.3-1,0.5
		c-0.4,0.2-0.8,0.3-1.3,0.5c-0.5,0.2-0.9,0.3-1.4,0.4c-0.3,0-0.6,0-1-0.1C28.5,19,28.1,18.8,27.7,18.3z M29.7,15.1
		c0.3-0.2,0.8-0.6,1.4-1.2c0.6-0.5,1.2-1.1,1.9-1.8c0.7-0.7,1.4-1.4,2-2.2c0.7-0.8,1.3-1.6,1.9-2.3c0.6-0.8,1-1.5,1.4-2.2
		c0.4-0.7,0.5-1.3,0.5-1.8c-1.4,1.4-2.6,2.8-3.6,4c-1,1.2-1.9,2.5-2.9,3.7c-0.5,0.6-0.9,1.2-1.4,1.8C30.5,13.8,30.1,14.4,29.7,15.1
		L29.7,15.1z"/>
	<path class="st0" d="M40.5,17.5c-0.4,0.3-0.9,0.5-1.4,0.8c-0.5,0.3-1.1,0.5-1.6,0.7c-0.6,0.2-1.2,0.3-1.8,0.3c-0.6,0-1.2,0-1.8-0.2
		c-0.3-0.2-0.6-0.3-0.8-0.5c-0.2-0.2-0.3-0.5-0.4-0.9v0c0-0.5,0.2-0.9,0.5-1.4c0.3-0.5,0.7-0.9,1.2-1.3c0.5-0.4,1-0.7,1.5-1
		c0.5-0.3,1.1-0.4,1.5-0.4c0.3,0,0.7,0.1,1.1,0.2c0.4,0.2,0.6,0.5,0.6,1c0,0.5-0.2,1-0.6,1.4c-0.4,0.4-0.8,0.7-1.4,0.9
		c-0.5,0.2-1.1,0.4-1.7,0.5c-0.6,0.1-1.1,0.2-1.5,0.2c0,0.1,0.1,0.2,0.3,0.3c0.2,0.1,0.4,0.1,0.6,0.2c0.2,0,0.5,0.1,0.7,0.1
		c0.2,0,0.4,0,0.5,0c0.5,0,1.1-0.1,1.6-0.2c0.5-0.1,1-0.2,1.5-0.3c0.5-0.2,0.8-0.3,0.9-0.4c0.1-0.1,0.2-0.1,0.2-0.1
		c0.1,0,0.2,0,0.2,0.1L40.5,17.5L40.5,17.5z M34.9,16.5c-0.1,0.1-0.2,0.2-0.3,0.3c-0.1,0.1-0.2,0.2-0.1,0.1c0.1,0,0.3-0.1,0.7-0.3
		c0.3-0.2,0.6-0.3,0.8-0.4l0.5-0.3c0.2-0.2,0.4-0.3,0.6-0.5c0.2-0.2,0.3-0.3,0.4-0.5c-0.1,0-0.2,0-0.4,0.1c-0.2,0.1-0.4,0.2-0.6,0.3
		l-0.2,0.1c-0.2,0.2-0.4,0.3-0.6,0.5C35.3,16.1,35.1,16.2,34.9,16.5z"/>
	<path class="st0" d="M44,15.5c0.2-0.2,0.3-0.4,0.4-0.5h-0.1c-0.1,0-0.3,0-0.5,0.1c-0.2,0.1-0.5,0.2-0.8,0.3
		c-0.3,0.2-0.6,0.4-0.9,0.6c-0.3,0.3-0.6,0.6-0.8,1C41,17.2,41,17.2,41,17.3c0,0,0,0.1,0,0.1v0c0,0,0.1,0.1,0.1,0.2
		c0,0.1,0.1,0.2,0.3,0.2c0.1,0.1,0.4,0.1,0.7,0.2c0.3,0.1,0.7,0.1,1.3,0.1c1.1,0,2-0.1,2.7-0.4c0.7-0.3,1.1-0.4,1.1-0.5
		c0.1,0,0.2,0,0.2,0c0,0.1,0,0.1,0,0.2c-0.4,0.3-0.8,0.6-1.3,0.8c-0.4,0.2-0.9,0.4-1.5,0.5c-0.6,0.2-1.3,0.3-2,0.3h-0.2
		c-0.2,0-0.5,0-0.8-0.1c-0.3-0.1-0.6-0.2-0.9-0.3c-0.3-0.2-0.5-0.3-0.7-0.6c-0.2-0.2-0.3-0.5-0.3-0.8c0-0.6,0.2-1.1,0.5-1.6
		c0.4-0.5,0.8-0.9,1.3-1.2c0.5-0.3,1.1-0.6,1.7-0.8c0.6-0.2,1.2-0.3,1.7-0.3c0.2,0,0.4,0,0.6,0.1c0.2,0.1,0.3,0.2,0.4,0.3
		c0.1,0.2,0.2,0.4,0.2,0.7c0,0.3-0.1,0.6-0.4,0.8c-0.2,0.2-0.5,0.4-0.8,0.5c-0.3,0.1-0.6,0.2-0.8,0.3c-0.3,0.1-0.4,0.1-0.5,0.1l0,0
		c-0.1,0-0.1-0.1-0.1-0.2v0l0.2-0.2C43.7,15.8,43.8,15.7,44,15.5z"/>
	<path class="st0" d="M49.4,17.8c-0.1,0.2,0,0.4,0.4,0.4c0.4,0,0.8,0,1.2-0.1c0.4-0.1,0.8-0.2,1.1-0.3c0.4-0.1,0.6-0.2,0.9-0.3
		c0.2-0.1,0.4-0.2,0.4-0.2c0.1-0.1,0.2,0,0.3,0s0.2,0.2,0.1,0.3c0,0.1-0.1,0.1-0.2,0.2c-0.1,0.1-0.1,0.1-0.2,0.1
		c-0.4,0.2-0.8,0.4-1.2,0.6c-0.4,0.1-0.8,0.3-1.2,0.4c-0.5,0.1-0.9,0.2-1.5,0.2h-0.1c-0.2,0-0.4-0.1-0.7-0.2
		c-0.3-0.2-0.4-0.4-0.4-0.6c0-0.3,0.1-0.7,0.2-1c0.2-0.3,0.3-0.7,0.5-1v0c0,0,0-0.1,0-0.1c0,0,0,0,0-0.1c-0.2,0.2-0.5,0.4-0.8,0.6
		c-0.4,0.3-0.7,0.5-1,0.8c-0.3,0.2-0.6,0.4-0.9,0.5c-0.3,0.1-0.4,0.1-0.5,0c0-0.1,0-0.1,0-0.2c0.2-0.1,0.5-0.3,0.9-0.7
		c0.4-0.4,0.9-0.8,1.5-1.4c0.5-0.5,1.1-1.2,1.7-1.9c0.6-0.7,1.2-1.4,1.8-2.1c-1.1,0-2.2,0-3.3,0c-1.1,0-2.1,0-3,0
		c-0.9,0-1.6,0-2.2,0c-0.6,0-1,0-1.1,0h0c0,0-0.1-0.1-0.3-0.3c-0.1-0.2-0.2-0.4-0.2-0.7c0-0.2,0-0.3,0.1-0.4c0.1,0,0.2-0.1,0.3-0.1
		h0c0.2,0,0.5,0,0.8,0c0.3,0,0.8,0,1.6,0c0.7,0,1.7,0,3,0.1c1.3,0,3,0.1,5.1,0.2c0.5-0.7,1-1.4,1.5-2c0.5-0.6,0.8-1.1,1.1-1.4
		c0.2-0.2,0.3-0.4,0.4-0.5c0.1-0.1,0.2-0.2,0.3-0.2c0,0,0,0,0.1,0c0.1,0,0.3,0,0.4,0.1c0.2,0,0.3,0.1,0.4,0.2C57,6.7,57,6.8,57,6.9
		c0,0.2,0,0.3-0.1,0.5c-0.2,0.2-0.4,0.5-0.7,1c-0.3,0.5-0.9,1.2-1.7,2.3c2.1,0.2,3.7,0.3,4.7,0.4c1,0.1,1.7,0.2,2.1,0.3
		c0.4,0.1,0.6,0.1,0.6,0.2c0,0,0,0.1,0,0.1c0,0,0,0,0,0l-0.1,0.1h0c-0.1,0-0.7,0-2.1,0c-1.3,0-3.3,0-6,0c-0.3,0.3-0.7,0.7-1.1,1.2
		c-0.4,0.5-0.8,1-1.2,1.6c-0.4,0.6-0.8,1.1-1.1,1.7C49.8,16.8,49.6,17.3,49.4,17.8z"/>
	<path class="st0" d="M56,18.9c-0.5-0.3-0.7-0.8-0.7-1.5v-0.2c-0.1,0.1-0.2,0.1-0.5,0.2c-0.2,0.1-0.4,0.1-0.7,0.2
		c-0.2,0.1-0.5,0.1-0.7,0.2c-0.2,0-0.4,0.1-0.5,0.1c0,0-0.1,0-0.1,0c-0.1,0-0.1-0.1-0.1-0.1c0,0,0,0,0,0c0,0,0,0,0,0h0
		c0-0.1,0-0.1,0.1-0.1c0.1,0,0.1,0,0.2-0.1c0.3-0.2,0.7-0.4,1.1-0.8c0.4-0.4,0.9-0.8,1.3-1.2c0.4-0.4,0.8-0.8,1.1-1.1
		c0.3-0.3,0.5-0.5,0.6-0.6l0.1,0c-0.1,0,0,0,0.1,0c0.1,0,0.3,0.1,0.4,0.2c0.2,0.1,0.3,0.2,0.5,0.3c0.1,0.1,0.2,0.2,0.1,0.3
		c-0.2,0.3-0.3,0.5-0.5,0.8c-0.2,0.3-0.4,0.5-0.6,0.8c-0.2,0.3-0.3,0.6-0.5,0.8c-0.1,0.3-0.2,0.6-0.2,1c0,0.1,0.1,0.1,0.2,0.2
		c0.2,0,0.3,0.1,0.5,0.1c0.4,0,0.8-0.1,1.3-0.2c0.5-0.1,0.9-0.2,1.2-0.2l0.7-0.2c0,0,0.1,0,0.1,0c0,0,0.1,0,0.1,0h0
		c0.1,0.1,0.1,0.2,0.1,0.2c0,0-0.1,0.1-0.2,0.2c-0.7,0.4-1.4,0.7-1.9,0.9c-0.5,0.3-1.2,0.4-1.9,0.4C56.7,19.1,56.3,19,56,18.9z
		 M60.6,10.3c0,0,0,0.1-0.1,0.1l0,0.1c0,0,0,0.1,0,0.1v0c0,0.1,0,0.2-0.1,0.3c-0.1,0.1-0.2,0.2-0.3,0.3l-0.5,0.4l-0.4-0.7
		C59,10.7,59,10.5,59,10.4c0-0.1,0-0.2,0-0.3c0-0.1,0.1-0.2,0.1-0.3l0.1-0.2c0,0,0,0,0,0c0,0,0-0.1,0-0.1l0.1-0.1h0.1
		c-0.1,0,0,0,0.1,0.1c0.1,0,0.2,0.1,0.4,0.2c0.2,0.1,0.3,0.1,0.5,0.2c0.2,0.1,0.2,0.2,0.2,0.3C60.6,10.2,60.6,10.3,60.6,10.3z"/>
	<path class="st0" d="M61.3,17.9c0-0.2,0-0.5,0.1-0.7c-0.3,0.2-0.7,0.4-1,0.5c-0.4,0.1-0.7,0.2-0.9,0.3c-0.3,0.1-0.6,0.2-0.9,0.3
		c0,0-0.1,0-0.1-0.1c0-0.1,0.1-0.1,0.2-0.2c0.6-0.2,1.2-0.6,1.9-0.9c0.6-0.4,1.2-0.8,1.7-1.3c0.8-0.8,1.4-1.4,1.9-1.7
		c0.5-0.3,0.8-0.5,1-0.5h0h0l0.1,0.1c0.1-0.1,0.1-0.1,0.3-0.1s0.2,0,0.3,0c0.6,0,1,0.2,1.2,0.6c0.2,0.4,0.4,0.9,0.4,1.3
		c0,0.7-0.2,1.3-0.5,1.9c0.1,0.1,0.2,0.1,0.4,0.1c0.2,0,0.4,0,0.6,0c0.5,0,0.9,0,1.1-0.1c0.3-0.1,0.4-0.1,0.4-0.1
		c0.1,0.1,0.2,0.1,0.2,0.2l0,0l-0.2,0.1c-0.2,0.1-0.5,0.3-1,0.4c-0.5,0.2-1.1,0.3-1.8,0.3h0c-0.1,0-0.1,0-0.2,0c-0.1,0-0.1,0-0.2,0
		c-0.4,0.4-0.9,0.7-1.4,0.9s-1,0.3-1.5,0.3c-0.4,0-0.8-0.1-1.3-0.3C61.6,18.9,61.3,18.5,61.3,17.9z M62.9,17.8c0,0.1,0,0.2,0.1,0.3
		c0.1,0.1,0.3,0.1,0.6,0.1c0.2,0,0.5,0,0.7,0c0.2,0,0.5-0.1,0.7-0.3c-0.4-0.2-0.6-0.5-0.7-0.9c-0.1-0.4-0.2-0.7-0.2-0.9
		c-0.2,0.2-0.5,0.4-0.6,0.6c-0.2,0.2-0.3,0.4-0.5,0.6C62.9,17.3,62.9,17.6,62.9,17.8z M65.7,15.1c-0.1,0.2-0.2,0.5-0.2,0.9
		c0,0.1,0,0.3,0.1,0.5c0.1,0.2,0.2,0.4,0.5,0.6c0.2-0.2,0.4-0.5,0.5-0.9c0.1-0.4,0.2-0.7,0.2-1c0-0.2-0.1-0.5-0.3-0.7
		c-0.2-0.2-0.4-0.4-0.7-0.4c0,0.1,0,0.1,0.1,0.2c0.1,0.1,0.1,0.2,0.1,0.3c0,0.1-0.1,0.2-0.3,0.3h0C65.7,15,65.7,15,65.7,15.1
		C65.7,15,65.7,15,65.7,15.1z"/>
	<path class="st0" d="M78.9,17.3c0.2,0,0.2,0.1,0.1,0.2c-0.1,0.1-0.1,0.2-0.2,0.3c-0.1,0.1-0.2,0.2-0.4,0.3
		c-0.2,0.2-0.5,0.3-0.9,0.5c-0.4,0.2-0.7,0.3-1.1,0.5c-0.4,0.1-0.8,0.2-1.3,0.2c-0.1,0-0.2,0-0.3,0c-0.2,0-0.3-0.1-0.5-0.2
		c-0.2-0.1-0.3-0.2-0.5-0.4c-0.1-0.2-0.2-0.4-0.2-0.8c0-0.2,0.1-0.5,0.2-0.8c0.1-0.3,0.3-0.5,0.3-0.7c-0.2,0.1-0.5,0.3-0.9,0.6
		c-0.4,0.3-0.9,0.6-1.4,0.9c-0.5,0.3-1,0.6-1.4,0.9c-0.4,0.3-0.8,0.4-0.9,0.4c-0.5,0-0.8-0.2-0.8-0.6c0.1-0.2,0.1-0.4,0.1-0.4
		c0.2-0.4,0.4-0.8,0.7-1.2c0.3-0.4,0.7-0.7,1-1.1c0.3-0.4,0.6-0.7,0.7-0.8c0.2-0.1,0.3-0.3,0.3-0.4c0-0.1,0-0.1-0.1-0.1
		c-0.4,0-0.8,0.1-1.3,0.3c-0.4,0.2-0.8,0.3-1.1,0.4c-0.1,0-0.1,0-0.1-0.1c0-0.2,0.5-0.6,1.5-1c0.2-0.1,0.3-0.1,0.6-0.2
		c0.2-0.1,0.4-0.1,0.6,0c0.1,0,0.3,0.1,0.4,0.2c0.2,0.1,0.3,0.3,0.3,0.5c0,0.1-0.1,0.4-0.3,0.7c-0.2,0.4-0.5,0.8-0.8,1.3
		c1.1-0.8,2.1-1.5,3-2.1c0.9-0.6,1.4-1,1.5-1.1c0.2-0.1,0.5,0,0.8,0.1c0.4,0.1,0.6,0.3,0.6,0.4c0,0.1,0,0.2,0,0.2
		c-0.1,0.2-0.3,0.6-0.6,1.1c-0.3,0.5-0.8,1.3-1.4,2.4c0,0.1-0.1,0.1-0.1,0.2c0,0.1,0.2,0.2,0.7,0.2c1,0,1.8-0.1,2.4-0.4
		C78.6,17.4,78.9,17.3,78.9,17.3L78.9,17.3z"/>
	<path class="st0" d="M86.2,17.3c0.1,0,0.1,0,0.1,0.1c0,0,0,0.1-0.1,0.1c0,0-0.1,0.1-0.3,0.3c-0.2,0.2-0.4,0.3-0.6,0.5
		c-0.3,0.2-0.6,0.3-0.9,0.5c-0.3,0.1-0.7,0.2-1.1,0.2c-0.4,0-0.7-0.1-0.9-0.2c-0.4,0.2-0.7,0.4-1.1,0.5c-0.3,0.1-0.7,0.1-1,0.1
		c-0.7,0-1.2-0.1-1.5-0.4c-0.3-0.3-0.5-0.5-0.5-0.8c-0.2,0-0.4,0-0.6,0.1c-0.2,0.1-0.5,0.1-0.7,0.2c-0.2,0.1-0.5,0.1-0.7,0.1
		c-0.2,0-0.4-0.1-0.5-0.3c0,0,0-0.1,0-0.1c0,0,0.1-0.1,0.3-0.1c0.7-0.2,1.4-0.6,2.1-1c0.7-0.4,1.3-0.8,1.8-1.2
		c0.5-0.4,1-0.8,1.5-1.2c0.4-0.4,0.8-0.7,1-1c0.1-0.2,0.1-0.3,0.2-0.5c0.1-0.2,0.2-0.2,0.4-0.2c0.2,0,0.4,0.1,0.6,0.2
		c0.3,0.1,0.4,0.2,0.4,0.3C84,13.8,84,14,84,14.2c0,0.2,0.1,0.5,0.2,0.9c0.2,0.6,0.2,1.1,0,1.6c-0.2,0.5-0.4,0.9-0.9,1.4h0h0.1
		c0.4,0,0.7,0,1-0.1c0.2,0,0.5-0.1,0.6-0.2c0.2-0.1,0.4-0.2,0.5-0.3C85.7,17.5,85.9,17.4,86.2,17.3z M82.8,15.6
		c-0.4,0.4-0.9,0.8-1.6,1.3c-0.6,0.5-1.4,0.9-2.4,1.2c0.2,0.2,0.5,0.4,1,0.4c0.2,0,0.5-0.1,0.9-0.2c0.3-0.1,0.7-0.3,1-0.5
		c0.3-0.2,0.6-0.5,0.8-0.8c0.2-0.3,0.3-0.6,0.3-0.8V15.6z"/>
</g>
</svg>
