<?xml version="1.0" encoding="utf-8"?>
<!-- Generator: Adobe Illustrator 19.1.0, SVG Export Plug-In . SVG Version: 6.00 Build 0)  -->
<svg version="1.1" id="Layer_1" xmlns="http://www.w3.org/2000/svg" xmlns:xlink="http://www.w3.org/1999/xlink" x="0px" y="0px"
	 viewBox="0 0 175.2 30.9" style="enable-background:new 0 0 175.2 30.9;" xml:space="preserve">
<style type="text/css">
	.st0{fill:#D99B3B;}
</style>
<g id="uClrcr.tif">
	<g>
		<path class="st0" d="M109.8,23.1c-0.4,0-0.9,0-1.3,0.2c-2.5,0.8-4.9,1.6-6.9,3.5c-0.5,0.5-1.1,1-1.8,1.4c-0.4,0.2-1,0.1-1.5,0.1
			c0.1-0.5,0-1.2,0.2-1.6c0.4-0.6,1.2-1.1,1.7-1.7c0.4-0.4,0.7-0.9,1-1.4c-0.1-0.1-0.2-0.3-0.2-0.4c-0.5,0.1-1.1,0.2-1.6,0.4
			c-2.8,1.5-5.5,3-8.2,4.5c-0.7,0.4-1.4,0.9-2.2,1.2c-0.5,0.2-1.5,0.1-1.6-0.2c-0.2-0.6-0.2-1.4,0.1-1.8c0.4-0.7,1.2-1.3,1.8-1.9
			c0.2-0.2,0.3-0.4,0.6-1c-0.7,0.2-1.2,0.2-1.6,0.4c-1.5,0.7-2.9,1.5-4.5,2c-2.1,0.7-4.4,1.2-6.6,1.7c-0.6,0.1-1.3-0.4-1.9-0.6
			c-0.5-0.2-1.1-0.5-1.6-0.4c-1.5,0.4-3,1.1-4.5,1.6c-2,0.6-2.9-0.3-2.3-2.3c0.3-0.8,0.8-1.7,1.4-2.3c2.2-1.7,4.6-3.4,6.9-4.9
			c0.8-0.5,1.8-0.8,2.7-1c0.9-0.2,1.7-0.1,2.2,1c0.1,0.3,0.7,0.4,1,0.5c0.3,0.1,0.7,0.1,1.1,0.2c-0.1,0.4,0,1-0.3,1.3
			c-0.7,0.9-1.5,1.7-2.3,2.5c-0.5,0.6-1,1.1-1.5,1.7c0.1,0.1,0.1,0.2,0.2,0.4c0.5,0,1,0,1.4-0.1c2-0.7,4.1-1.4,6.1-2.2
			c2.3-0.9,4.6-2,6.9-3c0.4-0.2,0.9-0.4,1.4-0.4c1.1-0.2,1.7,0.5,1.3,1.6c-0.2,0.5-0.4,0.9-0.8,1.7c0.7-0.2,1.1-0.3,1.5-0.5
			c1.6-0.6,3.1-1.3,4.7-1.8c1-0.4,2.1-0.4,3,0.6c0.3,0.3,1,0.3,1.5,0.2c1.8-0.3,3.5-0.9,5.3-1.2c0.7-0.1,1.9,0.1,2.1,0.6
			c0.3,0.6,0,1.6-0.4,2.3c-0.4,0.8-1.1,1.4-1.6,2c-0.4,0.5-0.3,0.9,0.3,1c2.9,0.4,5.6,0.2,8-1.8c1.6-1.3,3.4-2.4,5.1-3.5
			c0.5-0.3,1.2-0.1,1.9-0.1c-0.1,0.7,0.1,1.6-0.3,2c-0.7,0.9-1.7,1.5-2.6,2.2c-0.4,0.3-0.9,0.6-1.3,0.9c0,0.1,0.1,0.2,0.1,0.3
			c0.5-0.1,1-0.2,1.5-0.3c2.8-1,5.7-1.9,8.5-2.9c0.7-0.2,1.5-0.4,2.2-0.4c0.5,0,1.1,0.4,1.3,0.8c0.4,0.8,0.9,0.8,1.5,0.5
			c1.4-0.7,2.7-1.4,4.1-2c0.8-0.3,1.6-0.6,2.4-0.7c0.5-0.1,1.2,0.1,1.4,0.4c0.2,0.4,0.2,1.1,0,1.6c-0.2,0.6-0.7,1-1.1,1.6
			c-0.1,0.2-0.2,0.5-0.4,0.7c3.1,0.3,12.7-5.4,15.3-9.2c-0.4-0.1-0.7-0.2-1-0.2c-0.4,0-0.9,0.2-1.3,0.1c-0.5-0.2-0.9-0.5-1.4-0.8
			c0.4-0.3,0.8-0.8,1.3-0.9c0.7-0.2,1.5-0.1,2.3-0.2c4.9-0.4,9.8-0.8,14.7-1.2c0.3,0,0.7-0.1,0.9,0c0.3,0.2,0.9,0.5,0.9,0.8
			c0,0.4-0.3,0.8-0.6,1.1c-0.2,0.2-0.7,0.2-1,0.2c-2.9,0.3-5.9,0.6-8.8,0.9c-1.3,0.1-2.3,0.7-3.3,1.5c-2.8,2.3-5.7,4.4-8.4,6.7
			c-0.8,0.7-1.5,1.7-2,2.7c-0.6,1.1-0.2,1.6,1,1.4c2.2-0.5,4.3-1.2,6.4-1.9c0.5-0.1,0.9-0.4,1.3-0.5c0.2-0.1,0.7,0,0.7,0.2
			c0.1,0.2,0.1,0.6,0,0.9c-0.2,0.3-0.5,0.6-0.9,0.8c-2.5,1.3-5,2.3-7.8,2.6c-2.3,0.2-3.2-0.5-3.5-2.7c-0.1-1-0.6-1.1-1.4-0.8
			c-2.3,0.8-4.5,1.5-6.8,2.2c-0.6,0.2-1.2-0.1-1.8-0.2c0.2-0.6,0.2-1.4,0.6-1.9c0.4-0.6,1.1-1.1,1.7-1.5c0.4-0.3,0.9-0.5,1.3-0.8
			c-0.1-0.2-0.3-0.4-0.4-0.6c-0.4,0.1-0.8,0.2-1.1,0.4c-3.1,1.6-6.1,3.1-9.2,4.7c-0.5,0.2-1.1,0.1-1.6,0.1c0.1-0.6,0.1-1.3,0.4-1.8
			c0.5-0.7,1.2-1.2,1.8-1.8c-0.1-0.1-0.1-0.3-0.2-0.4c-1.1,0.3-2.1,0.6-3.2,1c-2.7,0.9-5.4,1.9-8.2,2.8c-1,0.3-1.8,0.3-2.7-0.5
			c-0.3-0.3-1-0.3-1.5-0.3c-2.5,0-5,0.1-7.5,0c-1.3,0-1.8-1.1-1.1-2.2c0.5-0.7,1.2-1.3,1.8-1.9c0.4-0.4,0.7-0.8,1.1-1.3
			C110,23.3,109.9,23.2,109.8,23.1z M69.4,26.3c0.4,0.1,0.5,0.2,0.6,0.2c3.6-0.2,5.6-3,7.9-5.1c0,0,0.1-0.1,0.1-0.1
			c-0.2-0.3-0.3-0.7-0.5-0.7c-0.4,0-0.8,0.1-1.1,0.3c-2.1,1.4-4.2,2.9-6.3,4.3C69.8,25.4,69.7,25.9,69.4,26.3z"/>
		<path class="st0" d="M64.5,23.4c-0.2,0.4-0.3,0.9-0.6,1.2c-2.1,2.3-4.5,4.3-7.4,5.7c-0.2,0.1-0.5,0.2-0.7,0.2
			c-0.5,0-1.2,0.1-1.4-0.2c-0.3-0.3-0.4-1.1-0.2-1.5c0.5-1,1.1-1.9,1.7-2.9c0.5-0.8,1.1-1.4,1.7-2.2c0.2-0.2,0.2-0.5,0.4-1
			c-0.6,0.2-1,0.3-1.3,0.4c-3.6,1.2-7.1,2.3-10.7,3.6c-1.2,0.5-2.4,1.3-3.5,2c-0.9,0.6-1.5,0.4-1.5-0.7c0-0.9,0.4-1.8,0.6-2.7
			c0.1-0.5,0.4-1,0.6-1.5c-0.1-0.1-0.1-0.2-0.2-0.3c-0.6,0.2-1.2,0.4-1.7,0.6c-3.4,1.2-6.8,2.4-10.3,3.7c-0.2,0.1-0.4,0.2-0.6,0.1
			c-0.7-0.1-1.8,0-2-0.4c-0.3-0.6-0.3-1.7,0-2.3c0.5-1,0.9-1.9,0.4-3.1c-0.1-0.3-0.1-0.7,0.1-1.1c0.1-0.3,0.4-0.5,0.6-0.6
			c0.2,0,0.5,0.2,0.6,0.4c0.5,1.1,1.1,0.8,1.8,0.2c1.6-1.3,3.1-2.6,4.8-3.8c0.8-0.6,1.8-0.9,2.7-1.2c0.5-0.1,1.3,0,1.5,0.3
			c0.3,0.4,0.4,1.3,0.1,1.6c-0.8,1.1-1.7,2.3-2.9,2.9c-1.5,0.9-3.2,1.2-4.8,1.9c-0.8,0.4-1.5,1-2.2,1.6c-0.2,0.2-0.2,0.6-0.3,1
			c0.3,0,0.7,0.2,1,0.1c1.1-0.3,2.3-0.5,3.3-1c5.1-2.1,10.2-4.3,15.3-6.5c0.6-0.3,1.1-0.6,1.7-0.8c0.4-0.1,1,0.1,1.4,0.2
			c-0.1,0.4,0,1-0.2,1.3c-0.7,0.9-1.5,1.7-2.3,2.6c-0.8,0.8-1.7,1.7-2.5,2.5c0,0.1,0.1,0.2,0.1,0.3c0.3,0,0.7,0.2,1,0.1
			c5.6-1.5,11-3.4,15.2-7.6c0.6-0.6,1.1-1.1,0.1-2c-0.6-0.5-0.4-1.1,0.5-1.3c4.6-1,9.3-1.7,14-1.6c0.5,0,1.1-0.1,1.4,0.2
			c0.5,0.3,1.1,0.9,1.1,1.4c0,0.9-0.8,0.9-1.5,0.9c-2.4,0-4.8,0-7.2,0c-1.7,0-3.1,0.6-4.4,1.5c-4.5,3-7.8,7-10.9,11.2
			c-0.2,0.3-0.4,0.6-0.4,1.1c2.9-0.9,4.7-3.5,7.2-5C64.2,23.1,64.4,23.2,64.5,23.4z"/>
		<path class="st0" d="M33.2,6.2c-0.5-0.2-0.7-0.4-0.9-0.4c-3.3-0.2-6.6-0.4-9.9-0.4c-2.1,0-3.9,1.2-5.4,2.8c-0.7,0.7-1,1.5-0.5,2.5
			c0.6,1,1.4,1,2.4,0.8c0.4-0.1,0.9,0,1.3,0.1c-0.3,0.4-0.6,0.9-1,1.1c-1.3,0.6-2.8,0.4-3.6-0.5c-1-1.1-1.3-2.9-0.6-4.2
			C16,6,17.6,5,19.6,4.4c3.5-1,7-1.1,10.6-0.9c3.5,0.2,7,0.4,10.5,0.6c1.1,0,2.3-0.2,3.4-0.4c1.5-0.3,2.6-1.1,3.2-2.5
			c0.1-0.2,0.2-0.5,0.4-0.6c0.5-0.3,1.1-0.7,1.5-0.6c0.4,0.1,0.8,0.9,0.9,1.3C50.3,4,48.7,6,46,6.2c-2.6,0.2-5.3,0.4-7.9,0.2
			c-2.5-0.2-4.3,0.8-5.9,2.5c-0.9,1-1.8,2-2.7,3c-2.9,3-5.6,6-8.6,8.8c-3.4,3.1-7.2,5.7-11.5,7.5c-1.6,0.6-3.5,0.9-5.3,0.8
			c-2.9-0.2-5-4.1-3.8-7.1c0.4-0.9,1.1-1.8,1.7-2.6C2.2,19,2.6,19,2.9,18.9c0,0.3,0.2,0.7,0,1c-0.3,0.6-0.7,1.2-1,1.8
			c-1.5,2.8,0.1,5.9,3.3,5.9c1.7,0,3.5-0.6,5-1.3c4.4-2.1,8.2-5,11.7-8.3c2.8-2.7,5.4-5.7,8.1-8.5C31,8.4,32,7.4,33.2,6.2z"/>
	</g>
</g>
</svg>
