<?xml version="1.0" encoding="utf-8"?>
<!-- Generator: Adobe Illustrator 19.1.0, SVG Export Plug-In . SVG Version: 6.00 Build 0)  -->
<svg version="1.1" id="Layer_1" xmlns="http://www.w3.org/2000/svg" xmlns:xlink="http://www.w3.org/1999/xlink" x="0px" y="0px"
	 viewBox="0 0 65 21.1" style="enable-background:new 0 0 65 21.1;" xml:space="preserve">
<style type="text/css">
	.st0{fill:#D89A3A;}
</style>
<g>
	<path class="st0" d="M18.4,18.9c0-0.4,0.1-0.7,0.2-1.1c-0.5,0.3-1,0.6-1.5,0.7c-0.5,0.2-1,0.3-1.4,0.5c-0.5,0.2-0.9,0.3-1.3,0.4
		c0,0-0.1,0-0.2-0.1c0-0.1,0.1-0.2,0.3-0.3c0.9-0.4,1.8-0.8,2.7-1.4c0.9-0.6,1.7-1.2,2.4-1.9c1.1-1.1,2.1-2,2.8-2.4
		c0.7-0.5,1.2-0.7,1.5-0.7H24h0.1l0.1,0.1c0.1-0.1,0.2-0.1,0.4-0.1s0.3,0,0.4,0c0.8,0,1.4,0.3,1.8,0.9c0.4,0.6,0.5,1.2,0.5,1.9
		c0,1-0.2,1.9-0.7,2.8c0.1,0.1,0.3,0.1,0.6,0.2c0.3,0,0.6,0,0.9,0c0.7,0,1.2-0.1,1.6-0.2c0.4-0.1,0.6-0.2,0.6-0.2
		c0.2,0.1,0.3,0.2,0.3,0.3l-0.1,0.1l-0.3,0.2c-0.2,0.2-0.7,0.4-1.4,0.6c-0.7,0.2-1.6,0.4-2.6,0.4h-0.1c-0.1,0-0.2,0-0.3,0
		c-0.1,0-0.2,0-0.3,0c-0.6,0.6-1.3,1-2.1,1.3s-1.5,0.4-2.2,0.4c-0.6,0-1.2-0.2-1.9-0.5C18.8,20.3,18.4,19.7,18.4,18.9z M20.6,18.7
		c0,0.1,0.1,0.3,0.2,0.4c0.1,0.1,0.4,0.2,0.9,0.2c0.4,0,0.7,0,1.1-0.1c0.4,0,0.7-0.2,1-0.4c-0.5-0.4-0.9-0.8-1.1-1.3
		c-0.2-0.5-0.3-1-0.3-1.3c-0.4,0.3-0.7,0.6-0.9,0.8c-0.2,0.2-0.5,0.5-0.7,0.8C20.7,18.1,20.6,18.4,20.6,18.7z M24.6,14.8
		c-0.2,0.4-0.3,0.8-0.3,1.3c0,0.2,0,0.4,0.1,0.7c0.1,0.3,0.3,0.6,0.7,0.9c0.4-0.4,0.6-0.8,0.8-1.3c0.2-0.5,0.3-1,0.3-1.4
		c0-0.4-0.1-0.7-0.4-1.1c-0.2-0.4-0.6-0.5-1-0.5c0,0.1,0.1,0.2,0.2,0.3c0.1,0.1,0.2,0.3,0.2,0.5c0,0.2-0.1,0.3-0.4,0.4h-0.1
		C24.7,14.6,24.7,14.7,24.6,14.8C24.6,14.7,24.6,14.7,24.6,14.8z"/>
	<path class="st0" d="M42.2,18.1C42.2,17.9,42.1,17.9,42.2,18.1c-0.1,0.1-0.2,0.4-0.5,0.7c-0.3,0.3-0.8,0.7-1.4,1
		c-0.6,0.4-1.6,0.7-2.7,1c-0.6,0.1-1.1,0.1-1.5-0.1c-0.4-0.2-0.6-0.5-0.8-0.8c-0.2-0.3-0.3-0.6-0.3-0.9c0-0.3,0-0.5,0.2-0.7
		c-0.6,0.6-1.3,1.2-2,1.8c-0.8,0.6-1.7,0.9-2.8,0.9c-0.4,0-0.8-0.2-1.2-0.6c-0.4-0.4-0.6-0.9-0.6-1.4c0-0.7,0.2-1.4,0.6-2.2
		c0.4-0.8,0.9-1.5,1.4-2.1c0.6-0.7,1.3-1.5,2.1-2.2l0.1-0.1c0.3,0,0.7,0.1,1.1,0.2s0.6,0.4,0.7,0.7c-0.2,0.3-0.4,0.6-0.6,0.9
		c-0.2,0.3-0.5,0.6-0.8,1c-0.1,0.1-0.3,0.3-0.5,0.6c-0.2,0.3-0.5,0.7-0.8,1.1s-0.6,0.8-0.8,1.2c-0.2,0.4-0.3,0.7-0.3,0.9h0.1h0.4
		c0.3,0,0.7-0.2,1.2-0.5c0.5-0.3,1-0.6,1.5-1.1c0.5-0.4,1.1-0.9,1.6-1.4c0.5-0.5,1-0.9,1.5-1.4c0.4-0.4,0.7-0.8,0.9-1.1
		c0.2-0.3,0.5-0.6,0.8-0.9c0.2-0.2,0.5-0.1,1,0.1c0.4,0.2,0.6,0.5,0.6,0.6c0,0.2-0.1,0.4-0.2,0.7c-0.1,0.2-0.3,0.5-0.4,0.7
		c-0.9,1.4-1.6,2.4-2,3s-0.7,1-0.7,1.2c0.1,0.1,0.3,0.2,0.6,0.2c0.1,0,0.4,0,0.9-0.1c0.5-0.1,1-0.2,1.5-0.3c0.5-0.1,1-0.3,1.4-0.4
		c0.4-0.2,0.6-0.3,0.6-0.4h0.1C42.1,17.9,42.2,17.9,42.2,18.1z"/>
	<path class="st0" d="M54.3,18.1c0.1,0,0.2,0.1,0.2,0.4l-0.3,0.2c-0.1,0.1-0.4,0.3-0.8,0.5c-0.4,0.2-0.9,0.5-1.4,0.7
		c-0.6,0.2-1.2,0.5-1.8,0.7c-0.7,0.2-1.3,0.3-2.1,0.3c-0.4,0-0.9-0.1-1.4-0.4s-0.8-0.7-0.9-1.4c-0.1-0.6,0-1,0.1-1.4
		c0.2-0.4,0.4-0.7,0.5-0.9l0.1-0.1c0.1-0.2,0.2-0.3,0.3-0.5c0.1-0.1,0.2-0.2,0.3-0.3c-0.1,0-0.2-0.1-0.3-0.1c-0.1,0-0.2-0.1-0.3-0.2
		c-0.4,0.4-0.8,0.7-1.3,1.1c-0.5,0.4-1,0.7-1.6,1.1c-0.6,0.3-1.1,0.6-1.6,0.8c-0.5,0.2-0.9,0.4-1.2,0.4c-0.2-0.2-0.3-0.3-0.3-0.5
		l0.2-0.2c0.1-0.1,0.5-0.4,1.2-0.8c0.7-0.5,1.4-1.1,2-1.8c0.2-0.2,0.4-0.4,0.6-0.8c0.2-0.3,0.4-0.7,0.6-1c0.2-0.3,0.4-0.6,0.6-0.9
		c0.2-0.3,0.3-0.4,0.4-0.5c-0.1,0,0,0,0.2,0.1c0.2,0,0.4,0.1,0.7,0.2c0.3,0.1,0.5,0.1,0.7,0.2c0.2,0.1,0.3,0.2,0.3,0.3
		c0,0.2,0,0.4,0,0.6c0,0.2,0.1,0.3,0.2,0.5c0.1,0,0.1,0.1,0.2,0.1c0,0,0.1,0,0.2,0.1c0.7-0.7,1-1,1.1-1.1h0.1c0.2,0,0.5,0.1,1,0.4
		c0.4,0.3,0.6,0.5,0.6,0.8c0,0.2-0.2,0.5-0.5,0.7c-0.3,0.3-0.6,0.5-0.9,0.8c-0.4,0.4-0.8,0.8-1.3,1.3c-0.5,0.5-0.8,1-0.9,1.6
		c0.2,0.2,0.5,0.3,1,0.2c0.5,0,1-0.1,1.5-0.2c0.6-0.1,1.1-0.2,1.6-0.3c0.5-0.1,0.9-0.2,1.2-0.3c0.6-0.2,1-0.3,1-0.3
		C54.2,18.1,54.2,18.1,54.3,18.1z"/>
	<path class="st0" d="M64.8,18c0.1,0,0.2,0,0.2,0.1c0,0,0,0.1-0.1,0.2c0,0-0.1,0.2-0.4,0.4c-0.2,0.2-0.6,0.5-0.9,0.7
		c-0.4,0.3-0.8,0.5-1.3,0.7c-0.5,0.2-1,0.3-1.6,0.3c-0.6,0-1-0.1-1.3-0.3c-0.5,0.4-1,0.6-1.5,0.7c-0.5,0.1-1,0.2-1.5,0.2
		c-1,0-1.7-0.2-2.1-0.6c-0.4-0.4-0.7-0.7-0.8-1.1c-0.3,0-0.6,0.1-0.9,0.2c-0.4,0.1-0.7,0.2-1.1,0.3c-0.4,0.1-0.7,0.1-1.1,0.1
		c-0.4,0-0.6-0.1-0.8-0.4c0,0,0-0.1,0-0.1c0,0,0.1-0.1,0.4-0.2c1.1-0.3,2.1-0.8,3-1.4c0.9-0.6,1.8-1.2,2.6-1.8
		c0.8-0.6,1.5-1.2,2.1-1.8c0.6-0.6,1.1-1.1,1.5-1.4c0.1-0.2,0.2-0.4,0.3-0.7c0.1-0.2,0.3-0.4,0.6-0.4c0.2,0,0.5,0.1,0.9,0.3
		c0.4,0.2,0.6,0.3,0.6,0.5c-0.1,0.4-0.1,0.7,0,0.9c0.1,0.2,0.2,0.7,0.3,1.3c0.2,0.9,0.2,1.7,0,2.3c-0.2,0.7-0.6,1.3-1.3,2.1h0.1h0.1
		c0.6,0,1,0,1.4-0.1c0.4-0.1,0.7-0.2,0.9-0.3c0.3-0.1,0.5-0.2,0.7-0.4C64.1,18.3,64.4,18.1,64.8,18z M60,15.5
		c-0.6,0.5-1.4,1.1-2.2,1.8c-0.9,0.7-2,1.3-3.4,1.8c0.3,0.4,0.8,0.5,1.5,0.5c0.4,0,0.8-0.1,1.3-0.3c0.5-0.2,0.9-0.5,1.4-0.8
		c0.4-0.3,0.8-0.7,1.1-1.1c0.3-0.4,0.5-0.8,0.5-1.2V15.5z"/>
	<path class="st0" d="M23.4,4.4c-0.4-0.2-0.5-0.3-0.7-0.3c-2.3-0.1-4.7-0.3-7-0.3c-1.5,0-2.8,0.8-3.8,1.9c-0.5,0.5-0.7,1.1-0.4,1.8
		c0.4,0.7,1,0.7,1.7,0.5c0.3-0.1,0.6,0,0.9,0.1c-0.2,0.3-0.4,0.7-0.7,0.8c-0.9,0.4-2,0.3-2.5-0.3c-0.7-0.8-0.9-2.1-0.4-3
		c0.7-1.3,1.9-2.1,3.3-2.5c2.4-0.7,4.9-0.8,7.5-0.6c2.5,0.1,4.9,0.3,7.4,0.4c0.8,0,1.6-0.2,2.4-0.3c1-0.2,1.8-0.7,2.2-1.7
		c0.1-0.2,0.1-0.4,0.3-0.4C34,0.2,34.4-0.1,34.7,0C35,0.1,35.3,0.6,35.3,1c0.1,1.9-1,3.3-2.9,3.4c-1.8,0.1-3.7,0.3-5.6,0.1
		c-1.8-0.2-3,0.6-4.1,1.8c-0.6,0.7-1.3,1.4-1.9,2.1c-2,2.1-4,4.2-6.1,6.2c-2.4,2.2-5.1,4.1-8.1,5.3c-1.1,0.5-2.5,0.6-3.7,0.6
		c-2.1-0.1-3.5-2.9-2.7-5c0.3-0.7,0.7-1.2,1.2-1.8c0.1-0.2,0.4-0.1,0.7-0.2c0,0.2,0.1,0.5,0,0.7c-0.2,0.4-0.5,0.8-0.7,1.2
		c-1.1,2,0.1,4.2,2.3,4.2c1.2,0,2.4-0.4,3.5-0.9c3.1-1.5,5.8-3.5,8.2-5.9c2-1.9,3.8-4,5.7-6C21.9,5.9,22.6,5.2,23.4,4.4z"/>
</g>
</svg>
