<?xml version="1.0" encoding="utf-8"?>
<!-- Generator: Adobe Illustrator 19.1.0, SVG Export Plug-In . SVG Version: 6.00 Build 0)  -->
<svg version="1.1" id="Lager_1" xmlns="http://www.w3.org/2000/svg" xmlns:xlink="http://www.w3.org/1999/xlink" x="0px" y="0px"
	 viewBox="-152 277.9 306.1 238.1" style="enable-background:new -152 277.9 306.1 238.1;" xml:space="preserve">
<style type="text/css">
	.st0{fill:#FFFFFF;}
</style>
<g>
	<g>
		<path class="st0" d="M106.6,320.8c-5.8,0-15.5,0.2-22,0.3c-1.2,15.3-0.3,31.7-0.8,47.6c1.8,2.8,4,5.3,5.6,8.2
			c8.6,12.9,11.6,29.6,9,45.7c-2.4,11.4-6.3,22.1-14,31.2c0.1,6.3-0.3,13.5,5.6,17.6c2,1.3,5.2,1.2,7.4,0.8
			c5.1-0.8,7.4-6.2,8.4-10.5c1.1-19.1,1.7-39,1.2-58.8C106.4,374,106.9,349.4,106.6,320.8L106.6,320.8z M40.4,321.4
			c0,0-14.4-0.1-19.5,0c-0.5,10.6,0.4,19.9-0.1,30.3c-0.1,0.7-0.3,1.1-0.8,1.1c-14,4.3-26.9,11.5-37,23.9c3.3,8.4,6.1,17,9.4,25.6
			c27.5-0.2,56.7-0.9,84.4-1.1c0.3-9.8,0.1-19.6,0.4-29.3c-8.1-9.8-19.2-15.3-30.5-18.6c-2-0.8-5.5-0.9-5.7-2.5
			C40,341.3,41,331.3,40.4,321.4L40.4,321.4z M-35.9,323.7c0,0,0-1.2-0.9-1.3c-6.1,0.2-10.8,0.1-16.1,0.3c-0.4,8.8,0.3,18.5,0,27.3
			c-5.8,17.9-12.8,35.3-18.5,53.3c11.9-0.4,23.1,0.1,35-0.5c1.2-7.4,4-14.1,6.9-20.7c1.2-2.2,2.6-4.3,3.6-6.5
			c-3.2-8.3-5.5-17-9.6-24.9C-36.1,342.1-35.7,332.5-35.9,323.7L-35.9,323.7z M91,401.3c-0.8-6.8-3-13.7-6.8-19.4l-0.1,19.4H91
			L91,401.3z M-15.6,402.2c-2-5.9-4.3-11.9-6.5-17.6c-3.4,5.6-5.5,11.8-6.8,18.2C-24.7,402.6-19.6,402.7-15.6,402.2L-15.6,402.2z
			 M92.1,408.2c-3.1-0.1-5,0-8.1,0c-0.3,11.4,0.7,22,0.3,33.5c0,0.3,0.3,0,0.3,0C90.7,432,92.8,420.5,92.1,408.2L92.1,408.2z
			 M76.7,452.8v-44.6c-27.4,0-55.6-0.1-82.1,0.4c6.3,20.8,14.2,42,21.9,62.4c0.8,2.4,1.8,2,3.6,2c5.4,0.3,11.4,0.7,16.2-0.3
			c8.2-0.7,16-2.9,22.9-6.6C66.3,462.3,72.4,457.6,76.7,452.8L76.7,452.8z M-12.2,411.6c-0.3-0.9-0.4-1.8-1.3-1.9
			c-5.3,0.3-10.6,0.1-15.8,0.6c-1.1,17,3.7,33,15.6,45.3c6.5,7.2,14.6,11.9,23,15.3C1.5,451.4-5.4,431.6-12.2,411.6L-12.2,411.6z
			 M-37.4,409.9c-12.4,0.2-24,0.2-36.4,0.6c-7.9,21-17.3,41.4-23.7,63c31.9,0,64.3,0.7,95.7,0c-5.2-3-10.4-6.2-15-10.4
			c-8.4-7.4-13.8-17-17.1-26.9C-37.2,428.3-37.2,418.6-37.4,409.9L-37.4,409.9z M113.6,313.9c0.5,0.1,0.7,0.4,0.8,0.9
			c-0.8,49.7,0.8,96.3-1.3,146.9c-0.6,7.1-4.3,14.7-11.5,17c-5.2,1.1-11.3,1.5-16-1.2c-5.6-3.7-6.8-9.5-8.1-15.2
			c-14.6,12.1-31.7,18.5-51.3,18c-44.6,0.1-87.9-0.9-132.7-0.3c-1.2-0.1-0.9-2.2-0.5-3.3c14.9-38.8,29.2-77.8,43.6-116.9l3.1-7.4
			c0.3-11.4-0.7-24.1-0.3-35.9c0.1-2,4.2-1.6,6.7-1.6h24.8c0.9,0,1.1,1.2,1.1,1.8c-0.1,10.7,0.2,22.5,0.3,33.4
			c2.3,6.5,5,12.3,7.6,18.7c9.7-10.8,21.2-17.6,33.7-22.1c0.2-10.8-0.2-21.4,0.1-31.7c0-0.5,0.5-1,1-1c10.4-0.1,21.3-0.5,31.6-0.1
			c0.8,0,1.1,1.1,1.1,2c0.1,10.4,0.3,19.8,0.2,30c0.5,0.3,1.6,0.4,2.3,0.8c9.8,2.8,19,7.2,27,13.9c0.6-15.2,0.6-30.5,0.6-45.5
			c0-0.8,0.7-1.3,1.4-1.4C90.4,313.5,102,313.5,113.6,313.9L113.6,313.9z"/>
	</g>
</g>
</svg>
