<?xml version="1.0" encoding="utf-8"?>
<!-- Generator: Adobe Illustrator 19.1.0, SVG Export Plug-In . SVG Version: 6.00 Build 0)  -->
<svg version="1.1" id="Lager_1" xmlns="http://www.w3.org/2000/svg" xmlns:xlink="http://www.w3.org/1999/xlink" x="0px" y="0px"
	 viewBox="-326 161.9 306.1 238.1" style="enable-background:new -326 161.9 306.1 238.1;" xml:space="preserve">
<style type="text/css">
	.st0{fill:#FFFFFF;}
</style>
<g>
	<g>
		<g>
			<g>
				<g>
					<defs>
						<rect id="SVGID_1_" x="-478" y="439.9" width="306" height="238"/>
					</defs>
					<clipPath id="SVGID_2_">
						<use xlink:href="#SVGID_1_"  style="overflow:visible;"/>
					</clipPath>
				</g>
			</g>
		</g>
	</g>
</g>
<path class="st0" d="M-197.1,235.4c-11.7-10.2-25.4-16.8-40.9-17.1c-12.7,0.7-25.2,6-32.3,17.4c-7.7,11.7-5,29,1.1,40.6
	c6.4,12.8,18.1,23.3,28.1,34.3c21.8,19.5,42.8,39.6,65.6,57.2c0.2,0.2,0.5,0.2,0.6,0.1c14.9-12.6,30.2-24.4,45-37
	c21.3-19,46.4-38.7,57.2-64.7c4.2-12.3,2.3-27.4-7.7-36.5c-11.7-11.6-31.5-12.8-46.3-7.2c-17.4,7.3-31.6,23.3-45.5,37
	c-1.6-1.3-2.8-2.4-4-3.8C-183,249.5-189.8,241.4-197.1,235.4L-197.1,235.4z M-173.1,248.4c15.5-14,30.3-30.3,49.8-35.1
	c17.2-4.3,36.5-1.3,49,11.8c10.3,11.2,14.5,27.7,9.2,42.5c-4.5,13.6-14.4,24.9-24.1,36.3c-24.9,25.2-51.7,45.9-77.9,67.6l-7.5,5.6
	c-0.1,0.2-0.5,0.3-0.9,0.1c-2.4-1.3-4.5-3.1-6.4-4.6c-24.6-20.3-48.2-40.3-71.5-63.5c-11.8-12.9-23.9-25.9-27.7-42.2
	c-4.1-15.5-1.8-34,11.7-44.8c12.1-10,29.2-13.7,45.2-9.7C-204.3,217.7-187.3,232.5-173.1,248.4L-173.1,248.4z"/>
</svg>
