<?xml version="1.0" encoding="utf-8"?>
<!-- Generator: Adobe Illustrator 16.0.0, SVG Export Plug-In . SVG Version: 6.00 Build 0)  -->
<!DOCTYPE svg PUBLIC "-//W3C//DTD SVG 1.1//EN" "http://www.w3.org/Graphics/SVG/1.1/DTD/svg11.dtd">
<svg version="1.1" id="Layer_1" xmlns="http://www.w3.org/2000/svg" xmlns:xlink="http://www.w3.org/1999/xlink" x="0px" y="0px"
	 width="30px" height="30px" viewBox="0 0 30 30" enable-background="new 0 0 30 30" xml:space="preserve">
<ellipse fill="#FCFCFC" cx="14.958" cy="15.083" rx="13.875" ry="13.75"/>
<g>
	<path d="M15,0C6.716,0,0,6.716,0,15s6.716,15,15,15s15-6.716,15-15S23.284,0,15,0z M14.833,27.916C7.774,27.916,2,21.84,2,14.781
		C2,7.722,7.723,2,14.781,2c7.058,0,13.135,5.774,13.135,12.833C27.916,21.891,21.893,27.916,14.833,27.916z"/>
</g>
<path d="M15.083,5.75c-5.062,0-9.167,4.104-9.167,9.167c0,0.028,0.004,0.055,0.004,0.083H3.333l4.438,6.791l0.496-0.759l1.675-2.563
	L12.209,15H8.812c-0.001-0.051-0.008-0.102-0.008-0.153c0-3.43,2.78-6.208,6.208-6.208c3.427,0,6.38,2.804,6.38,6.233
	c0,3.427-2.93,6.356-6.356,6.356c-2.101,0-2.705-0.646-4.205-1.812l-1.565,2.616c1.065,0.967,3.106,2.052,5.815,2.052
	c5.062,0,9.167-4.104,9.167-9.167C24.248,9.854,20.146,5.75,15.083,5.75z"/>
</svg>
