<?xml version="1.0" encoding="utf-8"?>
<!-- Generator: Adobe Illustrator 16.0.0, SVG Export Plug-In . SVG Version: 6.00 Build 0)  -->
<!DOCTYPE svg PUBLIC "-//W3C//DTD SVG 1.1//EN" "http://www.w3.org/Graphics/SVG/1.1/DTD/svg11.dtd">
<svg version="1.1" id="Layer_1" xmlns="http://www.w3.org/2000/svg" xmlns:xlink="http://www.w3.org/1999/xlink" x="0px" y="0px"
	 width="30px" height="30px" viewBox="0 0 30 30" enable-background="new 0 0 30 30" xml:space="preserve">
<ellipse fill="#FCFCFC" cx="14.958" cy="15.083" rx="13.875" ry="13.75"/>
<g>
	<path d="M15,0C6.716,0,0,6.716,0,15s6.716,15,15,15s15-6.716,15-15S23.284,0,15,0z M14.833,27.916C7.774,27.916,2,21.84,2,14.781
		C2,7.722,7.723,2,14.781,2c7.058,0,13.135,5.774,13.135,12.833C27.916,21.891,21.893,27.916,14.833,27.916z"/>
</g>
<path d="M8.206,12H5.125c0,0-0.656,0.031-0.875,0.25S4,12.969,4,12.969v5c0,0-0.062,0.438,0.172,0.719
	C4.406,18.969,4.905,19,4.905,19h3.296C10.395,21.514,13,24.24,13,23.023c0-2.104,0-13.315,0-15.13C13,6.844,10.399,9.54,8.206,12z"
	/>
<path d="M16.135,15.5c0.276,0,0.5-0.224,0.5-0.5s-0.224-0.5-0.5-0.5c-0.048,0-0.091,0.015-0.135,0.027v0.945
	C16.044,15.485,16.087,15.5,16.135,15.5z"/>
<path d="M16.762,21.762c0.379,0.332,1.071,0.443,1.124,0.389c3.88-4.049,3.888-10.44,0.021-14.5
	c-0.06-0.062-0.579,0.068-0.985,0.427c-0.406,0.359-0.523,0.895-0.438,0.991c2.994,3.301,2.932,8.391-0.193,11.617
	C16.259,20.718,16.383,21.43,16.762,21.762z"/>
<path d="M14.069,19.068c0.337,0.307,0.792,0.449,0.873,0.356c2.223-2.481,2.203-6.264-0.055-8.724
	c-0.063-0.069-0.651,0.077-1.028,0.437c-0.377,0.36-0.497,0.856-0.403,0.949c1.646,1.648,1.75,4.259,0.309,6.021
	C13.668,18.23,13.732,18.764,14.069,19.068z"/>
<path d="M19.664,23.838c-0.021,0.021-0.044,0.043-0.066,0.062c-0.119,0.113-0.035,0.713,0.375,1.072
	c0.411,0.356,0.947,0.557,1.047,0.457c5.766-5.766,5.855-15.053,0.277-20.93c-0.091-0.097-0.484-0.214-1.088,0.288
	s-0.536,0.916-0.445,1.013C24.445,10.825,24.548,18.954,19.664,23.838z"/>
</svg>
