<?xml version="1.0" encoding="utf-8"?>
<!-- Generator: Adobe Illustrator 19.1.0, SVG Export Plug-In . SVG Version: 6.00 Build 0)  -->
<svg version="1.1" id="Lager_1" xmlns="http://www.w3.org/2000/svg" xmlns:xlink="http://www.w3.org/1999/xlink" x="0px" y="0px"
	 viewBox="0 0 306.1 238.1" style="enable-background:new 0 0 306.1 238.1;" xml:space="preserve">
<style type="text/css">
	.st0{clip-path:url(#SVGID_2_);}
	.st1{clip-path:url(#SVGID_4_);fill-rule:evenodd;clip-rule:evenodd;fill:#FFFFFF;}
	.st2{clip-path:url(#SVGID_4_);}
	.st3{clip-path:url(#SVGID_6_);fill:#FFFFFF;}
</style>
<g>
	<g>
		<defs>
			<rect id="SVGID_1_" width="306" height="238"/>
		</defs>
		<clipPath id="SVGID_2_">
			<use xlink:href="#SVGID_1_"  style="overflow:visible;"/>
		</clipPath>
		<g class="st0">
			<defs>
				<rect id="SVGID_3_" width="306" height="238"/>
			</defs>
			<clipPath id="SVGID_4_">
				<use xlink:href="#SVGID_3_"  style="overflow:visible;"/>
			</clipPath>
			<rect class="st1" width="306" height="238"/>
			<g class="st2">
				<defs>
					<rect id="SVGID_5_" width="306.1" height="238.1"/>
				</defs>
				<use xlink:href="#SVGID_5_"  style="overflow:visible;fill-rule:evenodd;clip-rule:evenodd;fill:#BF2146;"/>
				<clipPath id="SVGID_6_">
					<use xlink:href="#SVGID_5_"  style="overflow:visible;"/>
				</clipPath>
				<path class="st3" d="M249.3,42.3c-5.8,0-15.5,0.2-22,0.3c-1.2,15.3-0.3,31.7-0.8,47.6c1.8,2.8,4,5.3,5.6,8.2
					c8.6,12.9,11.6,29.6,9,45.7c-2.4,11.4-6.3,22.1-14,31.2c0.1,6.3-0.3,13.5,5.6,17.6c2,1.3,5.2,1.2,7.4,0.8
					c5.1-0.8,7.4-6.2,8.4-10.5c1.1-19.1,1.7-39,1.2-58.8C249.1,95.5,249.6,70.9,249.3,42.3L249.3,42.3z M183.1,42.9
					c0,0-14.4-0.1-19.5,0c-0.5,10.6,0.4,19.9-0.1,30.3c-0.1,0.7-0.3,1.1-0.8,1.1c-14,4.3-26.9,11.5-37,23.9c3.3,8.4,6.1,17,9.4,25.6
					c27.5-0.2,56.7-0.9,84.4-1.1c0.3-9.8,0.1-19.6,0.4-29.3c-8.1-9.8-19.2-15.3-30.5-18.6c-2-0.8-5.5-0.9-5.7-2.5
					C182.7,62.8,183.7,52.8,183.1,42.9L183.1,42.9z M106.8,45.2c0,0,0-1.2-0.9-1.3c-6.1,0.2-10.8,0.1-16.1,0.3
					c-0.4,8.8,0.3,18.5,0,27.3C84,89.4,77,106.8,71.3,124.8c11.9-0.4,23.1,0.1,35-0.5c1.2-7.4,4-14.1,6.9-20.7
					c1.2-2.2,2.6-4.3,3.6-6.5c-3.2-8.3-5.5-17-9.6-24.9C106.6,63.6,107,54,106.8,45.2L106.8,45.2z M233.7,122.8
					c-0.8-6.8-3-13.7-6.8-19.4l-0.1,19.4H233.7L233.7,122.8z M127.1,123.7c-2-5.9-4.3-11.9-6.5-17.6c-3.4,5.6-5.5,11.8-6.8,18.2
					C118,124.1,123.1,124.2,127.1,123.7L127.1,123.7z M234.8,129.7c-3.1-0.1-5,0-8.1,0c-0.3,11.4,0.7,22,0.3,33.5c0,0.3,0.3,0,0.3,0
					C233.4,153.5,235.5,142,234.8,129.7L234.8,129.7z M219.4,174.3v-44.6c-27.4,0-55.6-0.1-82.1,0.4c6.3,20.8,14.2,42,21.9,62.4
					c0.8,2.4,1.8,2,3.6,2c5.4,0.3,11.4,0.7,16.2-0.3c8.2-0.7,16-2.9,22.9-6.6C209,183.8,215.1,179.1,219.4,174.3L219.4,174.3z
					 M130.5,133.1c-0.3-0.9-0.4-1.8-1.3-1.9c-5.3,0.3-10.6,0.1-15.8,0.6c-1.1,17,3.7,33,15.6,45.3c6.5,7.2,14.6,11.9,23,15.3
					C144.2,172.9,137.3,153.1,130.5,133.1L130.5,133.1z M105.3,131.4c-12.4,0.2-24,0.2-36.4,0.6c-7.9,21-17.3,41.4-23.7,63
					c31.9,0,64.3,0.7,95.7,0c-5.2-3-10.4-6.2-15-10.4c-8.4-7.4-13.8-17-17.1-26.9C105.5,149.8,105.5,140.1,105.3,131.4L105.3,131.4z
					 M256.3,35.4c0.5,0.1,0.7,0.4,0.8,0.9c-0.8,49.7,0.8,96.3-1.3,146.9c-0.6,7.1-4.3,14.7-11.5,17c-5.2,1.1-11.3,1.5-16-1.2
					c-5.6-3.7-6.8-9.5-8.1-15.2c-14.6,12.1-31.7,18.5-51.3,18c-44.6,0.1-87.9-0.9-132.7-0.3c-1.2-0.1-0.9-2.2-0.5-3.3
					c14.9-38.8,29.2-77.8,43.6-116.9l3.1-7.4c0.3-11.4-0.7-24.1-0.3-35.9c0.1-2,4.2-1.6,6.7-1.6l24.8,0c0.9,0,1.1,1.2,1.1,1.8
					c-0.1,10.7,0.2,22.5,0.3,33.4c2.3,6.5,5,12.3,7.6,18.7c9.7-10.8,21.2-17.6,33.7-22.1c0.2-10.8-0.2-21.4,0.1-31.7
					c0-0.5,0.5-1,1-1c10.4-0.1,21.3-0.5,31.6-0.1c0.8,0,1.1,1.1,1.1,2c0.1,10.4,0.3,19.8,0.2,30c0.5,0.3,1.6,0.4,2.3,0.8
					c9.8,2.8,19,7.2,27,13.9c0.6-15.2,0.6-30.5,0.6-45.5c0-0.8,0.7-1.3,1.4-1.4C233.1,35,244.7,35,256.3,35.4L256.3,35.4z"/>
			</g>
		</g>
	</g>
</g>
</svg>
