<?xml version="1.0" encoding="utf-8"?>
<!-- Generator: Adobe Illustrator 19.1.0, SVG Export Plug-In . SVG Version: 6.00 Build 0)  -->
<svg version="1.1" id="Lager_1" xmlns="http://www.w3.org/2000/svg" xmlns:xlink="http://www.w3.org/1999/xlink" x="0px" y="0px"
	 viewBox="-326 161.9 306.1 238.1" style="enable-background:new -326 161.9 306.1 238.1;" xml:space="preserve">
<style type="text/css">
	.st0{clip-path:url(#SVGID_2_);}
	.st1{clip-path:url(#SVGID_6_);}
	.st2{clip-path:url(#SVGID_7_);fill:#FFFFFF;}
	.st3{clip-path:url(#SVGID_7_);}
	.st4{fill:#5A3824;}
	.st5{clip-path:url(#SVGID_9_);fill:#FFFFFF;}
</style>
<g>
	<g>
		<g>
			<defs>
				<rect id="SVGID_1_" x="-326" y="161.9" width="306" height="238"/>
			</defs>
			<clipPath id="SVGID_2_">
				<use xlink:href="#SVGID_1_"  style="overflow:visible;"/>
			</clipPath>
			<g class="st0">
				<g>
					<defs>
						<rect id="SVGID_3_" x="-326" y="161.9" width="306" height="238"/>
					</defs>
					<defs>
						<rect id="SVGID_4_" x="-326" y="161.9" width="306" height="238"/>
					</defs>
					<clipPath id="SVGID_6_">
						<use xlink:href="#SVGID_3_"  style="overflow:visible;"/>
					</clipPath>
					<clipPath id="SVGID_7_" class="st1">
						<use xlink:href="#SVGID_4_"  style="overflow:visible;"/>
					</clipPath>
					<rect x="-326" y="161.9" class="st2" width="306" height="238"/>
					<g class="st3">
						<g>
							<rect id="SVGID_5_" x="-326" y="161.9" class="st4" width="306.1" height="238.1"/>
						</g>
						<g>
							<defs>
								<rect id="SVGID_8_" x="-326" y="161.9" width="306.1" height="238.1"/>
							</defs>
							<clipPath id="SVGID_9_">
								<use xlink:href="#SVGID_8_"  style="overflow:visible;"/>
							</clipPath>
							<path class="st5" d="M-255.9,225.4c-1.5-0.8-13.6-2.2-20.1-3.2c-0.1,21.3-0.4,43.3,0.3,64.2c0.7-0.2,1.1-0.9,1.7-1.4
								c3.2-2.2,6-5.9,10-5.7c2.4,0.7,3.9,3.4,4.8,5.5c4.7,14.4,8.4,29.1,12.1,43.9c0.5,2.4,0.5,6.4,0.6,7.1c0.6,3.8,2,6.9,5.3,8.8
								c1.2,0.6,1.9-0.8,2.3-1.5c6.5-13.7,12.4-28.3,18.1-42.2c1.7-4.2,3.7-8.9,5.9-12.8c1.6-2.9,3.8-5.1,6.3-6.2
								c4.8-2.1,11.5-4.1,15.6-7.4c0.2-0.1,0.4-0.4,0.2-1c-0.1-0.3-0.3-0.7-0.5-1.1c-1.6-4.5-7.8-20.7-10.1-22.1
								c-6-3.1-11.6-5.7-17.9-8.1c-0.8-0.2-8.1,3.5-8.1,3.5c-2.8,1-6.6,3.8-9.1,1.5C-245.8,240.7-249.7,232.6-255.9,225.4
								L-255.9,225.4z M-121.8,225.9c-0.3-0.5-0.7-0.3-0.8,0c-7.8,15-13.7,29.7-21.9,44.8c-0.2,0.4,0.2,0.7,0.2,0.7l5,5.2
								c1.1,0.9,2.8,2.5,3.8,0.3c5-8.7,9.2-16.8,14.4-25.3c2-3.2,4.1-6.9,7.7-8.6c0.3-0.2,0.9-0.5,0.5-0.9
								C-117.3,239.1-119.1,231.4-121.8,225.9L-121.8,225.9z M-154.7,270.1c-2.9-3.7-4.5-5.8-8.3-8.4c-1.2-0.6-9.1,0.9-12.7,1.8
								c-4.1,1.6-4,4.5-9.2,10.4c-0.1,0.1-0.2,0.4-0.3,0.5c-0.2,0.4-0.1,0.7,0,1.1c0.3,0.8,1,2.2,1.4,3c3.1,6.4,5.7,13.5,13.3,17.4
								c2,1.2,5.3,4.3,5.8,3.1c3.3-7.9,5.2-16.1,7.5-24.3C-156.4,272.3-153.7,271.2-154.7,270.1L-154.7,270.1z M-276.5,202
								c0,0.4,0.3,12.9,0.3,12.9l0.3,0.3c7.5,1,15,2,22.3,3.8c0.8,0.3,1.4,1.2,2.1,1.9c5.5,5.5,9.1,12.5,14.5,18.4
								c2.3,3,5.1,0.2,7.4-0.8c3.2-1.4,6.2-4.2,10.2-2.9c7.3,3.4,18.9,7.6,21.6,11.3c3.9,6.5,6,13.5,9.3,20.2
								c0.4,0.6,0.6-0.2,0.9-0.5c2.8-3.6,6-9,11.2-9.5c6.8-1.4,15.2-4.8,20.4,1.9l6.2,6.2c0.3,0.3,0.6,0.1,0.6,0
								c7.4-14.1,13.8-28.1,20.4-42.6c1.3-2.1,2.9-5.7,5.7-5.9c3.7-0.2,5.6,3.2,6.9,6.2c1.7,4.2,2.7,8.4,5.2,12.2
								c1,1.6,2.6,2.3,4,4.3c0.4,0.5,0.9,0.3,1.1,0.2c5.5-1.9,10.6-4.5,16.2-6.2c1.4-0.4,1.9,2.8,1.9,4.7c-0.1,1.1-0.8,1.4-1.4,1.7
								c-4.1,1.2-10.9,4.2-13.8,5.4c-0.4,0.1-0.4,0.4-0.4,0.8c1.5,4,3.6,7.8,4.8,12.5c0.2,0.3,0.4,0.2,0.5,0.1
								c5.5-2.7,11.1-6.2,16.8-8.8c1.3-0.4,1.8,1.1,2.1,1.8c0.3,1.3,0.1,2.2-0.3,3.4c-7.1,4.1-14.3,8.5-21.8,11.5
								c-0.4,0.2-0.9,0.1-1.1-0.3c-1.2-2-1.9-3.6-2.8-6.2c-1.2-3.8-2.1-7.7-4-11.2c-0.1-0.2-0.5-0.6-0.8-0.5c-2.4,0.7-3.8,3.5-5,5.4
								c-5.9,10.5-11.4,20.6-17.6,31.2c-0.6,1.1-2.1,1.6-3.3,0.9c-4.5-2.9-9.1-5.5-12.5-10.2c-0.4-0.6-1.3,0.3-1.7,1.1
								c-3.4,9.7-5.4,19.6-9.8,29c-1.1,1.8-5.9,0.1-8.3-1c-10-4.7-17.7-14.6-21.8-24.3c-0.1-0.2-0.1-0.6-0.7-0.2
								c-5.2,3.1-11.1,5.1-16.5,7.6c-5.1,6.8-7.6,14.7-10.7,22.3c-5.6,11.9-10.6,23.9-16.2,35.9c-0.7,1.4-1.2,4.5-3.3,5.4
								c-4.7,0.8-8.2-2.4-11.6-5.5c-4.4-4-2.6-11.6-4.2-16.6c-4.2-13.7-7-26.8-11.4-40.3c-0.4-1-0.8-2.4-1.9-1.5
								c-3.1,2.7-6.1,5.3-9.3,8.2c0.3,22.1,0.3,42.5,0.7,64.2c0,0.2,0.1,0.4,0.3,0.3c0.2,0,209,0,209,0c1.6-0.1,2.3,0.2,2.4,0.8
								c0,2.3,0.3,5.7-0.8,5.7l-217.6,0.2c-0.4,0-0.5-0.6-0.5-1l-0.4-90.6c0-24.6-0.2-49,0.2-73.9c0-0.3,0.5-0.6,0.7-0.7
								c1.6-0.6,3.5-0.4,5.2,0.1C-276.8,201.3-276.5,201.6-276.5,202L-276.5,202z"/>
						</g>
					</g>
				</g>
			</g>
		</g>
	</g>
</g>
</svg>
