<?xml version="1.0" encoding="utf-8"?>
<!-- Generator: Adobe Illustrator 19.1.0, SVG Export Plug-In . SVG Version: 6.00 Build 0)  -->
<svg version="1.1" id="Lager_1" xmlns="http://www.w3.org/2000/svg" xmlns:xlink="http://www.w3.org/1999/xlink" x="0px" y="0px"
	 viewBox="-326 161.9 306.1 238.1" style="enable-background:new -326 161.9 306.1 238.1;" xml:space="preserve">
<style type="text/css">
	.st0{clip-path:url(#SVGID_2_);}
	.st1{clip-path:url(#SVGID_6_);}
	.st2{clip-path:url(#SVGID_7_);fill:#FFFFFF;}
	.st3{clip-path:url(#SVGID_7_);}
	.st4{fill:#EB8823;}
	.st5{clip-path:url(#SVGID_9_);fill:#FFFFFF;}
</style>
<g>
	<g>
		<g>
			<defs>
				<rect id="SVGID_1_" x="-326" y="161.9" width="306" height="238"/>
			</defs>
			<clipPath id="SVGID_2_">
				<use xlink:href="#SVGID_1_"  style="overflow:visible;"/>
			</clipPath>
			<g class="st0">
				<g>
					<defs>
						<rect id="SVGID_3_" x="-326" y="161.9" width="306" height="238"/>
					</defs>
					<defs>
						<rect id="SVGID_4_" x="-326" y="161.9" width="306" height="238"/>
					</defs>
					<clipPath id="SVGID_6_">
						<use xlink:href="#SVGID_3_"  style="overflow:visible;"/>
					</clipPath>
					<clipPath id="SVGID_7_" class="st1">
						<use xlink:href="#SVGID_4_"  style="overflow:visible;"/>
					</clipPath>
					<rect x="-326" y="161.9" class="st2" width="306" height="238"/>
					<g class="st3">
						<g>
							<rect id="SVGID_5_" x="-326" y="161.9" class="st4" width="306.1" height="238.1"/>
						</g>
						<g>
							<defs>
								<rect id="SVGID_8_" x="-326" y="161.9" width="306.1" height="238.1"/>
							</defs>
							<clipPath id="SVGID_9_">
								<use xlink:href="#SVGID_8_"  style="overflow:visible;"/>
							</clipPath>
							<path class="st5" d="M-184.4,230.2c-20.9-13.7-44.4-21-69.6-24.7c-0.2,7.1-0.3,15.3-0.4,22.8c0,0.4,0,0.6,0,0.9
								c0.2,0,0.4,0,0.7,0.1c7.3,0,13.4,0.6,20.5,0.5c16.3,0.3,32.2,0.2,48.4,0.6L-184.4,230.2L-184.4,230.2z M-89.5,207
								c0-1.5-1.4-1-2.2-1c-24.1,3.4-46.5,11.1-66.8,23.7c23.1,0.5,45.3,0.8,68.2,0.3C-89.9,222.6-90,214.8-89.5,207L-89.5,207z
								 M-261.9,236.9l-12.3-0.4c-0.2,0-0.3,0.2-0.4,0.5c-0.7,20.3-0.5,39.3-0.7,59.6c-0.2,20,0.3,40.4,0.2,60.1l7.9,0.5l70.3,0.1
								c5-0.1,9.9,0.2,14.9-0.1c-21.8-10-45.2-17.6-67.4-26.8c-3.9-1.9-8.1-3-11.8-5.2c-0.3-0.2-0.7-0.6-0.7-1.2
								c0-23.2-0.2-46.5,0.2-70.2C-261.8,248.4-261.7,242.4-261.9,236.9L-261.9,236.9z M-177,237c0,0-77-0.5-77.4-0.5
								c0,0.1,0,0.4,0,0.5c-0.4,28.2,0.2,55.1-0.5,83.2c12.2,5.5,24.8,9.8,37,15c5,1.6,9.5,3.9,14.4,5.5c7.5,3.6,14.9,6.2,22.5,9.4
								c0.8,0.3,2.4,1.6,2.4,0.6c0.4-37.9,1.7-75.5,1.8-113L-177,237L-177,237z M-112.6,237c-13.9,0.3-27.6-0.6-41.4,0.2
								c-5.2-0.3-10.1-0.3-15.3,0c0.2,39.1-2.1,76.4-2.1,114.1c12.6-4.5,23.6-10.3,36.1-15c5.6-2.2,12-4.8,17.6-7.2
								c8.4-3.6,17.2-6.8,25.7-10.9c0.2-7.5,0.3-15.2,0.4-22.6c0.9-19.2,1.2-39.3,1.5-58.1c0,0-0.1-0.4-0.5-0.5H-112.6L-112.6,237z
								 M-71.4,237.3c0,0-11.7-0.1-12-0.1c0,0.7,0,1.5,0,1.5c0.6,24.8-2.3,54.6-1.6,82.4c0,1.8-1.1,2.4-2.3,2.9
								c-8.6,3.7-15.5,6.4-24.1,9.9c-18.6,7.5-37,15.5-55.4,23.4c31.4,0.5,61.9,0.3,94-0.3c0.5-7.6,0.3-16.5,0.8-24
								C-72.5,300.7-70.5,269.6-71.4,237.3L-71.4,237.3z M-82.2,198.7c-0.2,10.3-0.8,20.7-1.2,31.1c0,0.2,0,0.3,0,0.5
								c0.2,0,18.7,0,18.7,0c0.3,0,0.6,0.3,0.6,0.8c0.6,32.7-1.8,67.2-0.9,100.4c-0.6,10.3-0.7,21.2-1,31.5c0,0.2-0.5,0.5-0.7,0.5
								c-15.4,0.6-31.2,0-46.6,0.3c-50.3,0.5-99-0.5-148.8,0.3c-5.9-0.2-12.9-0.2-18.9-0.6c-0.3,0-0.6-0.5-0.6-0.9
								c-0.5-44.4,0.3-87.5,0.4-132.4c0,0,0.1-1.4,0.9-1.5c6.4-0.3,11.8,0.5,18.5,0.4c0.2,0,0.2-0.1,0.3-0.3c0-10.3,0-20,0.7-30
								c0.2-2,4.8-0.5,7.2-0.3c29.4,4.6,57.7,13.4,81.3,31.6c1.5-0.8,3.1-2.2,4.7-3c20.4-12.9,42.2-22.3,65.9-27
								c6.2-1.1,12.4-2.2,18.8-2.8C-82.5,197.4-82.2,197.9-82.2,198.7L-82.2,198.7z"/>
						</g>
					</g>
				</g>
			</g>
		</g>
	</g>
</g>
</svg>
