<?xml version="1.0" encoding="utf-8"?>
<!-- Generator: Adobe Illustrator 19.1.0, SVG Export Plug-In . SVG Version: 6.00 Build 0)  -->
<svg version="1.1" id="Lager_1" xmlns="http://www.w3.org/2000/svg" xmlns:xlink="http://www.w3.org/1999/xlink" x="0px" y="0px"
	 viewBox="-152 277.9 306.1 238.1" style="enable-background:new -152 277.9 306.1 238.1;" xml:space="preserve">
<style type="text/css">
	.st0{fill:#FFFFFF;}
</style>
<g>
	<path class="st0" d="M-10.5,346.5c-20.9-13.7-44.4-21-69.6-24.7c-0.2,7.1-0.3,15.3-0.4,22.8c0,0.4,0,0.6,0,0.9c0.2,0,0.4,0,0.7,0.1
		c7.3,0,13.4,0.6,20.5,0.5c16.3,0.3,32.2,0.2,48.4,0.6L-10.5,346.5L-10.5,346.5z M84.4,323.3c0-1.5-1.4-1-2.2-1
		c-24.1,3.4-46.5,11.1-66.8,23.7c23.1,0.5,45.3,0.8,68.2,0.3C84,338.9,83.9,331.1,84.4,323.3L84.4,323.3z M-88,353.2l-12.3-0.4
		c-0.2,0-0.3,0.2-0.4,0.5c-0.7,20.3-0.5,39.3-0.7,59.6c-0.2,20,0.3,40.4,0.2,60.1l7.9,0.5l70.3,0.1c5-0.1,9.9,0.2,14.9-0.1
		c-21.8-10-45.2-17.6-67.4-26.8c-3.9-1.9-8.1-3-11.8-5.2c-0.3-0.2-0.7-0.6-0.7-1.2c0-23.2-0.2-46.5,0.2-70.2
		C-87.9,364.7-87.8,358.7-88,353.2L-88,353.2z M-3.1,353.3c0,0-77-0.5-77.4-0.5c0,0.1,0,0.4,0,0.5c-0.4,28.2,0.2,55.1-0.5,83.2
		c12.2,5.5,24.8,9.8,37,15c5,1.6,9.5,3.9,14.4,5.5c7.5,3.6,14.9,6.2,22.5,9.4c0.8,0.3,2.4,1.6,2.4,0.6c0.4-37.9,1.7-75.5,1.8-113
		L-3.1,353.3L-3.1,353.3z M61.3,353.3c-13.9,0.3-27.6-0.6-41.4,0.2c-5.2-0.3-10.1-0.3-15.3,0c0.2,39.1-2.1,76.4-2.1,114.1
		c12.6-4.5,23.6-10.3,36.1-15c5.6-2.2,12-4.8,17.6-7.2c8.4-3.6,17.2-6.8,25.7-10.9c0.2-7.5,0.3-15.2,0.4-22.6
		c0.9-19.2,1.2-39.3,1.5-58.1c0,0-0.1-0.4-0.5-0.5L61.3,353.3L61.3,353.3z M102.5,353.6c0,0-11.7-0.1-12-0.1c0,0.7,0,1.5,0,1.5
		c0.6,24.8-2.3,54.6-1.6,82.4c0,1.8-1.1,2.4-2.3,2.9c-8.6,3.7-15.5,6.4-24.1,9.9c-18.6,7.5-37,15.5-55.4,23.4
		c31.4,0.5,61.9,0.3,94-0.3c0.5-7.6,0.3-16.5,0.8-24C101.4,417,103.4,385.9,102.5,353.6L102.5,353.6z M91.7,315
		c-0.2,10.3-0.8,20.7-1.2,31.1c0,0.2,0,0.3,0,0.5c0.2,0,18.7,0,18.7,0c0.3,0,0.6,0.3,0.6,0.8c0.6,32.7-1.8,67.2-0.9,100.4
		c-0.6,10.3-0.7,21.2-1,31.5c0,0.2-0.5,0.5-0.7,0.5c-15.4,0.6-31.2,0-46.6,0.3c-50.3,0.5-99-0.5-148.8,0.3
		c-5.9-0.2-12.9-0.2-18.9-0.6c-0.3,0-0.6-0.5-0.6-0.9c-0.5-44.4,0.3-87.5,0.4-132.4c0,0,0.1-1.4,0.9-1.5c6.4-0.3,11.8,0.5,18.5,0.4
		c0.2,0,0.2-0.1,0.3-0.3c0-10.3,0-20,0.7-30c0.2-2,4.8-0.5,7.2-0.3c29.4,4.6,57.7,13.4,81.3,31.6c1.5-0.8,3.1-2.2,4.7-3
		c20.4-12.9,42.2-22.3,65.9-27c6.2-1.1,12.4-2.2,18.8-2.8C91.4,313.7,91.7,314.2,91.7,315L91.7,315z"/>
</g>
</svg>
