<?xml version="1.0" encoding="utf-8"?>
<!-- Generator: Adobe Illustrator 19.1.0, SVG Export Plug-In . SVG Version: 6.00 Build 0)  -->
<svg version="1.1" id="Lager_1" xmlns="http://www.w3.org/2000/svg" xmlns:xlink="http://www.w3.org/1999/xlink" x="0px" y="0px"
	 viewBox="-152 277.9 306.1 238.1" style="enable-background:new -152 277.9 306.1 238.1;" xml:space="preserve">
<style type="text/css">
	.st0{clip-path:url(#SVGID_2_);}
	.st1{fill:#FFFFFF;}
</style>
<g>
	<g>
		<g>
			<g>
				<defs>
					<rect id="SVGID_1_" x="-152" y="278" width="306" height="238"/>
				</defs>
				<clipPath id="SVGID_2_">
					<use xlink:href="#SVGID_1_"  style="overflow:visible;"/>
				</clipPath>
				<g class="st0">
				</g>
			</g>
		</g>
	</g>
</g>
<rect x="-151.6" y="278.3" class="st1" width="306" height="238"/>
<path class="st1" d="M-23.2,338.8c-11.7-10.2-25.4-16.8-40.9-17.1c-12.7,0.7-25.2,6-32.3,17.4c-7.7,11.7-5,29,1.1,40.6
	c6.4,12.8,18.1,23.3,28.1,34.3c21.8,19.5,42.8,39.6,65.6,57.2c0.2,0.2,0.5,0.2,0.6,0.1c14.9-12.6,30.2-24.4,45-37
	c21.3-19,46.4-38.7,57.2-64.7c4.2-12.3,2.3-27.4-7.7-36.5c-11.7-11.6-31.5-12.8-46.3-7.2c-17.4,7.3-31.6,23.3-45.5,37
	c-1.6-1.3-2.8-2.4-4-3.8C-9.1,352.9-15.9,344.8-23.2,338.8L-23.2,338.8z M0.8,351.8c15.5-14,30.3-30.3,49.8-35.1
	c17.2-4.3,36.5-1.3,49,11.8c10.3,11.2,14.5,27.7,9.2,42.5c-4.5,13.6-14.4,24.9-24.1,36.3C59.8,432.5,33,453.2,6.8,474.9l-7.5,5.6
	c-0.1,0.2-0.5,0.3-0.9,0.1c-2.4-1.3-4.5-3.1-6.4-4.6c-24.6-20.3-48.2-40.3-71.5-63.5c-11.8-12.9-23.9-25.9-27.7-42.2
	c-4.1-15.5-1.8-34,11.7-44.8c12.1-10,29.2-13.7,45.2-9.7C-30.4,321.1-13.4,335.9,0.8,351.8L0.8,351.8z"/>
</svg>
