<?xml version="1.0" encoding="utf-8"?>
<!-- Generator: Adobe Illustrator 19.1.0, SVG Export Plug-In . SVG Version: 6.00 Build 0)  -->
<svg version="1.1" id="Lager_1" xmlns="http://www.w3.org/2000/svg" xmlns:xlink="http://www.w3.org/1999/xlink" x="0px" y="0px"
	 viewBox="-152 277.9 306.1 238.1" style="enable-background:new -152 277.9 306.1 238.1;" xml:space="preserve">
<style type="text/css">
	.st0{fill:#FFFFFF;}
</style>
<path class="st0" d="M36.1,346.5c0-5.8,1.4-11.3,0-16.7c-5,4.1-8.6,9.4-12.1,14.5c-11.9,18.5-18.8,39.6-17.3,63.3
	c8.7-8.4,15-18.5,20.1-28.7C31.9,368.9,34.6,357.7,36.1,346.5L36.1,346.5z M-85.6,341.4c-6.3-3.9-12.4-7.9-19.3-10.3
	c7.8,22.2,23.8,43.4,44.4,58.1c8.7,5.9,17.5,12.2,27.1,15.4C-44,380.7-62.8,357-85.6,341.4L-85.6,341.4z M93.4,448
	c-17.1-15.5-36.2-26.6-58.1-30.2c0.4,1.5,1.4,3.1,2.5,4.5c17.3,21.8,40.6,34.1,66,38.6C101,456.4,97.7,451.9,93.4,448L93.4,448z
	 M42.6,318.4c4.8,33.3-4.8,63.6-25.3,88c-2.3,2.8-4.8,5.4-7.2,8.1c-0.1,0.1,0.2,0.1,0.6,0c32.7-14.8,64.8-30.6,97.4-45.4
	c0.7-0.2-0.1,4.9,0.2,7.4c0,0.1,0,0.1-0.1,0.2c-23.8,11.9-48,22.6-72,34c1,0.8,2.6,0.6,3.8,0.9c30.5,7.4,62.4,26.6,76.8,57
	c0.1,0.3,0,0.6-0.3,0.8c-23.5-1.8-45.2-8.9-63.8-22.8c-11.3-7.8-21.2-19.2-26.5-31c-15.5,6.8-30.7,13.8-46.2,20.5
	c0,0-0.4,0.1-0.4,0.4l-0.2,40.2c0,0.1-0.1,0.2-0.3,0.3c-2.3,0.3-4.2,0.4-6.4,0.1c-0.3,0-0.3-0.2-0.3-0.4c-0.6-20.3,0-41.6-0.4-62
	c0-0.8-0.3-1-0.8-1.1c-14.1-4.2-26.8-11.9-39.1-20.6c-24-19.1-41.6-44.1-46.9-72.4c-0.1-0.4,0.2-0.6,0.5-0.4
	C-95,326-77.5,336.5-62,351.4c14.7,14.2,25.2,30.4,33.8,47.2c0.1,0.2,0.2,0.1,0.2,0c0.3-25.9,0-49.9,0.3-75.3c0-0.4,1.3-0.5,1.3-0.5
	l5.5,0.2c0.4,0,0.6,0.4,0.7,0.9c0.2,34-0.3,68.9-0.2,103.6c0,0.4,0.1,0.6,0.9,0.2c0.3-0.1,20.6-9.1,20.6-9.1
	c-1.2-6.3-1.3-12.2-1.6-18.5c0.9-32.7,13.9-62,40.3-82.7c0.4-0.4,1.3-1.3,2.1-0.6C42.3,317.3,42.5,317.9,42.6,318.4L42.6,318.4z"/>
</svg>
