<?xml version="1.0" encoding="utf-8"?>
<!-- Generator: Adobe Illustrator 19.1.0, SVG Export Plug-In . SVG Version: 6.00 Build 0)  -->
<svg version="1.1" id="Lager_1" xmlns="http://www.w3.org/2000/svg" xmlns:xlink="http://www.w3.org/1999/xlink" x="0px" y="0px"
	 viewBox="-326 161.9 306.1 238.1" style="enable-background:new -326 161.9 306.1 238.1;" xml:space="preserve">
<style type="text/css">
	.st0{clip-path:url(#SVGID_2_);}
	.st1{clip-path:url(#SVGID_6_);}
	.st2{clip-path:url(#SVGID_7_);fill:#FFFFFF;}
	.st3{clip-path:url(#SVGID_7_);}
	.st4{fill:#005988;}
	.st5{clip-path:url(#SVGID_9_);fill:#FFFFFF;}
</style>
<g>
	<g>
		<g>
			<defs>
				<rect id="SVGID_1_" x="-326" y="161.9" width="306" height="238"/>
			</defs>
			<clipPath id="SVGID_2_">
				<use xlink:href="#SVGID_1_"  style="overflow:visible;"/>
			</clipPath>
			<g class="st0">
				<g>
					<defs>
						<rect id="SVGID_3_" x="-326" y="161.9" width="306" height="238"/>
					</defs>
					<defs>
						<rect id="SVGID_4_" x="-326" y="161.9" width="306" height="238"/>
					</defs>
					<clipPath id="SVGID_6_">
						<use xlink:href="#SVGID_3_"  style="overflow:visible;"/>
					</clipPath>
					<clipPath id="SVGID_7_" class="st1">
						<use xlink:href="#SVGID_4_"  style="overflow:visible;"/>
					</clipPath>
					<rect x="-326" y="161.9" class="st2" width="306" height="238"/>
					<g class="st3">
						<g>
							<rect id="SVGID_5_" x="-326" y="161.9" class="st4" width="306.1" height="238.1"/>
						</g>
						<g>
							<defs>
								<rect id="SVGID_8_" x="-326" y="161.9" width="306.1" height="238.1"/>
							</defs>
							<clipPath id="SVGID_9_">
								<use xlink:href="#SVGID_8_"  style="overflow:visible;"/>
							</clipPath>
							<path class="st5" d="M-136.2,231.3c0-5.8,1.4-11.3,0-16.7c-5,4.1-8.6,9.4-12.1,14.5c-11.9,18.5-18.8,39.6-17.3,63.3
								c8.7-8.4,15-18.5,20.1-28.7C-140.4,253.7-137.7,242.5-136.2,231.3L-136.2,231.3z M-257.9,226.2c-6.3-3.9-12.4-7.9-19.3-10.3
								c7.8,22.2,23.8,43.4,44.4,58.1c8.7,5.9,17.5,12.2,27.1,15.4C-216.3,265.5-235.1,241.8-257.9,226.2L-257.9,226.2z
								 M-78.9,332.8c-17.1-15.5-36.2-26.6-58.1-30.2c0.4,1.5,1.4,3.1,2.5,4.5c17.3,21.8,40.6,34.1,66,38.6
								C-71.3,341.2-74.6,336.7-78.9,332.8L-78.9,332.8z M-129.7,203.2c4.8,33.3-4.8,63.6-25.3,88c-2.3,2.8-4.8,5.4-7.2,8.1
								c-0.1,0.1,0.2,0.1,0.6,0c32.7-14.8,64.8-30.6,97.4-45.4c0.7-0.2-0.1,4.9,0.2,7.4c0,0.1,0,0.1-0.1,0.2
								c-23.8,11.9-48,22.6-72,34c1,0.8,2.6,0.6,3.8,0.9c30.5,7.4,62.4,26.6,76.8,57c0.1,0.3,0,0.6-0.3,0.8
								c-23.5-1.8-45.2-8.9-63.8-22.8c-11.3-7.8-21.2-19.2-26.5-31c-15.5,6.8-30.7,13.8-46.2,20.5c0,0-0.4,0.1-0.4,0.4l-0.2,40.2
								c0,0.1-0.1,0.2-0.3,0.3c-2.3,0.3-4.2,0.4-6.4,0.1c-0.3,0-0.3-0.2-0.3-0.4c-0.6-20.3,0-41.6-0.4-62c0-0.8-0.3-1-0.8-1.1
								c-14.1-4.2-26.8-11.9-39.1-20.6c-24-19.1-41.6-44.1-46.9-72.4c-0.1-0.4,0.2-0.6,0.5-0.4c19.3,5.8,36.8,16.3,52.3,31.2
								c14.7,14.2,25.2,30.4,33.8,47.2c0.1,0.2,0.2,0.1,0.2,0c0.3-25.9,0-49.9,0.3-75.3c0-0.4,1.3-0.5,1.3-0.5l5.5,0.2
								c0.4,0,0.6,0.4,0.7,0.9c0.2,34-0.3,68.9-0.2,103.6c0,0.4,0.1,0.6,0.9,0.2c0.3-0.1,20.6-9.1,20.6-9.1
								c-1.2-6.3-1.3-12.2-1.6-18.5c0.9-32.7,13.9-62,40.3-82.7c0.4-0.4,1.3-1.3,2.1-0.6C-130,202.1-129.8,202.7-129.7,203.2
								L-129.7,203.2z"/>
						</g>
					</g>
				</g>
			</g>
		</g>
	</g>
</g>
</svg>
