<?xml version="1.0" encoding="utf-8"?>
<!-- Generator: Adobe Illustrator 19.1.0, SVG Export Plug-In . SVG Version: 6.00 Build 0)  -->
<svg version="1.1" id="Lager_1" xmlns="http://www.w3.org/2000/svg" xmlns:xlink="http://www.w3.org/1999/xlink" x="0px" y="0px"
	 viewBox="-326 161.9 306.1 238.1" style="enable-background:new -326 161.9 306.1 238.1;" xml:space="preserve">
<style type="text/css">
	.st0{clip-path:url(#SVGID_2_);}
	.st1{clip-path:url(#SVGID_6_);}
	.st2{clip-path:url(#SVGID_7_);fill:#FFFFFF;}
	.st3{clip-path:url(#SVGID_7_);}
	.st4{fill:#A89732;}
	.st5{clip-path:url(#SVGID_13_);}
	.st6{clip-path:url(#SVGID_14_);}
	.st7{clip-path:url(#SVGID_15_);}
	.st8{clip-path:url(#SVGID_16_);}
	.st9{clip-path:url(#SVGID_17_);fill:#FFFFFF;}
</style>
<g>
	<g>
		<g>
			<defs>
				<rect id="SVGID_1_" x="-326" y="161.9" width="306" height="238"/>
			</defs>
			<clipPath id="SVGID_2_">
				<use xlink:href="#SVGID_1_"  style="overflow:visible;"/>
			</clipPath>
			<g class="st0">
				<g>
					<defs>
						<rect id="SVGID_3_" x="-326" y="161.9" width="306" height="238"/>
					</defs>
					<defs>
						<rect id="SVGID_4_" x="-326" y="161.9" width="306" height="238"/>
					</defs>
					<clipPath id="SVGID_6_">
						<use xlink:href="#SVGID_3_"  style="overflow:visible;"/>
					</clipPath>
					<clipPath id="SVGID_7_" class="st1">
						<use xlink:href="#SVGID_4_"  style="overflow:visible;"/>
					</clipPath>
					<rect x="-326" y="161.9" class="st2" width="306" height="238"/>
					<g class="st3">
						<g>
							<rect id="SVGID_5_" x="-326" y="161.9" class="st4" width="306.1" height="238.1"/>
						</g>
						<g>
							<defs>
								<rect id="SVGID_8_" x="-326" y="161.9" width="306.1" height="238.1"/>
							</defs>
							<defs>
								<rect id="SVGID_9_" x="-326" y="161.9" width="306.1" height="238.1"/>
							</defs>
							<defs>
								<rect id="SVGID_10_" x="-326" y="161.9" width="306.1" height="238.1"/>
							</defs>
							<defs>
								<rect id="SVGID_11_" x="-326" y="161.9" width="306.1" height="238.1"/>
							</defs>
							<defs>
								<rect id="SVGID_12_" x="-326" y="161.9" width="306.1" height="238.1"/>
							</defs>
							<clipPath id="SVGID_13_">
								<use xlink:href="#SVGID_8_"  style="overflow:visible;"/>
							</clipPath>
							<clipPath id="SVGID_14_" class="st5">
								<use xlink:href="#SVGID_9_"  style="overflow:visible;"/>
							</clipPath>
							<clipPath id="SVGID_15_" class="st6">
								<use xlink:href="#SVGID_10_"  style="overflow:visible;"/>
							</clipPath>
							<clipPath id="SVGID_16_" class="st7">
								<use xlink:href="#SVGID_11_"  style="overflow:visible;"/>
							</clipPath>
							<clipPath id="SVGID_17_" class="st8">
								<use xlink:href="#SVGID_12_"  style="overflow:visible;"/>
							</clipPath>
							<path class="st9" d="M-130.3,217.2c1.8,1.6,2.3,4.3,1.5,6.4c-0.9,1.6-2.8,3-4.9,2.9c-2.3-0.3-4.3-2.6-4.5-4.7
								c-0.2-1.9,0.4-2.7,1.3-3.8C-135.4,216.1-132.1,215.7-130.3,217.2L-130.3,217.2z"/>
							<path class="st9" d="M-244.6,232.3c1.6,1.8,1.8,4.4,0.8,6.6c-1.1,1.5-2.7,1.9-4.4,2.1c-2.2,0-3.9-1.7-4.8-3.5
								c-0.9-2.1-0.3-5,1.3-5.9C-249.4,230.5-246.3,230.2-244.6,232.3L-244.6,232.3z"/>
							<path class="st9" d="M-165.2,281.3c0.9,2.6-0.2,5-1.9,6.8c-1.8,1.6-4.5,1.6-6.6,0.7c-2.2-0.7-2.9-3-3.4-4.9
								c-0.2-2.4,1.2-4.5,3.2-5.9c1.6-0.5,3.3-1,5-0.3C-167.4,278.4-165.9,279.6-165.2,281.3L-165.2,281.3z"/>
							<path class="st9" d="M-250.1,291c1,1.3,2,2.6,1.5,4.8c-0.3,1.5-1.6,3-3,3.6c-1.6,0.8-3.6,0.2-4.7-0.4c-1.3-1-2.4-2.2-2.6-3.8
								c-0.3-1.8,0.5-3.4,1.8-4.5C-255,289-251.7,289.2-250.1,291L-250.1,291z"/>
							<path class="st9" d="M-162.3,260.4c-1.9-1.9-4.1-4.3-6.1-6l-6.2,5.9L-162.3,260.4L-162.3,260.4z M-154.9,268.2
								c-9-0.7-17.7-0.7-27-0.6c-6.6,6.6-13.1,14-19.1,21.3c-0.4,0.6,0.4,1.2,1.1,2c1.7,1.8,3.5,4,5.5,6.2c0.8,0.9,1.7,1.6,2.4,2.4
								c0.2,0.2,44.1-0.1,44.1-0.1c3.8-3.3,7.3-6.8,10.4-10.4C-142.9,281.9-148.5,274.7-154.9,268.2L-154.9,268.2z M-192.6,268
								c-9.3-0.3-17.8,0.5-26.5,1.1c3.5,5.2,8.7,9.7,12.9,14.6c0.2,0.3,0.5,0,0.5,0C-201.4,278.3-197.4,273.2-192.6,268L-192.6,268z
								 M-118.7,269.9c-9.1-1-17.2-1.6-26.6-1.8l13.2,15.9C-127.4,279.4-122.8,274.8-118.7,269.9L-118.7,269.9z M-72.5,279.7
								c-11.3-5.8-23.8-7.2-36.8-8.9c-6.2,6.1-11.9,12.8-18.1,18.6c-0.3,0.4-0.4,0.6-0.2,0.8l5.9,8.6c4.9,0.1,22.3-2.6,33-4.7
								c2.3-0.4,16.7-4,18.9-8.6C-68.9,283.1-70.5,280.9-72.5,279.7L-72.5,279.7z M-129.6,299.1c-0.9-1.3-1.9-3-3.2-4.2l-4.4,4.4
								C-134.9,299.2-132,299.4-129.6,299.1L-129.6,299.1z M-202.9,298.8c-0.6-1.1-1.9-2.5-2.8-3.3c-0.8,0.8-1.6,1.8-2.5,3
								C-206.4,298.7-204.2,298.8-202.9,298.8L-202.9,298.8z M-196.2,305.7c-5.5-0.8-11-0.8-16.6-1.3c-5.2,6.9-9.7,14-14.4,22.1
								c-4.3,7.5-9.6,14.4-9.4,23.7c0.1,1.6,1.6,3.5,2.8,4.6c3.3,2.9,7.9,1.5,11.7,0.6c16.7-6.4,30.8-19.2,45.4-30.8
								C-182.8,318.1-189.9,311.7-196.2,305.7L-196.2,305.7z M-124.5,306c-6.8-0.1-13.4,0.3-20.2,0.6c-6.9,6-14,12.4-20.9,18
								c14.7,13.4,30.9,24,48.3,30.8c2.9,0.6,6.3,2.3,9.2,0.7c2.3-1.2,3.7-3.2,3.4-6C-106.9,332.8-115.9,319.8-124.5,306L-124.5,306
								z M-156.4,306.7c-9.2,0.1-18.6-0.1-27.9-0.5c0,0-1,0-0.4,0.6c4.4,4.5,8.9,8.8,13.8,13.1
								C-166.4,315.3-160.6,311.6-156.4,306.7L-156.4,306.7z M-201.1,216.7c11.1,8.2,22.2,17.1,32.7,27.2c7.4-6.8,15.4-14.4,24-19.3
								c1.3-0.6,2.5,1.8,3.6,3.5c0.3,1-0.9,1.9-0.9,1.9c-7.4,6.1-14.5,12.3-21.3,19.2l11.3,11.8c13,0.2,26.8,1.4,39.8,2.4
								c12.3-13.3,23.9-27.3,29-43.8c0.8-3.2,1.3-7.7-0.4-10.6c-3.3-4.9-9.5-4-14.7-3.6c-8.6,1.6-16,6-23.5,10.2
								c-1,0.6-3.2-2.2-3.2-3.6c0.5-2.4,3.3-3.2,5-4.7c10.5-6.6,23.7-12.3,36.8-7.6c4.2,2.4,7.7,6.6,7.6,11.8
								c0.1,14.7-8.4,26-15.7,37.6c-3.5,5.5-8.4,10.2-12.1,15.5c8,1.3,15.9,2.8,23.4,5.1c6.5,2.4,14.7,5.4,17,12.8
								c0.4,2.2,0.1,5.6-1.8,7.6c-5.5,5.4-11.6,6.9-17.8,8.9c-11.2,2.9-23.1,4.8-34.8,5.9c1,1.8,2.2,3.5,3.3,5.3
								c6.7,12.9,14.1,25,16.3,39.8c0.5,4.6-1.6,9.8-5.6,11.7c-8.6,3.9-19.4-0.9-21.8-2.2c-16-8.2-32-17.7-45.8-30.2
								c-15.1,11.8-30.3,23.7-47.3,31.4c-5.3,1.8-12.8,3.4-18.1,0.3c-4.3-1-6.7-6.2-7.1-9.2c-0.5-9.8,4.2-17.5,8.3-25.5
								c4.2-7.7,8.9-15.2,14.2-22.5c-7.5-1.1-15.1-1.9-22.3-3.4c-0.8-0.2,0-5.6,0.6-5.5c8.7,0.7,17.5,2.1,26.5,2.6
								c2-2.4,3.1-4.8,5.3-7.1c0.2-0.2,0.3-0.5,0.1-0.6c-6.2-6.6-11-12.8-16.8-19.5c-16,2.2-32.3,3.4-46.5,10c-1.6,1-2,2.7-0.8,4.2
								c3.1,3.4,7.2,4.1,11.1,5.6c0.8,0.3,0.1,5.5-0.7,5.4c-5.9-0.8-11.5-2.4-16-6.8c-2.1-2.2-3.8-5.1-2.6-8.1
								c2.9-6.4,10-7.4,15.5-9.7c10.9-3.4,22.3-5.7,33.9-7.2c0,0,0.4-0.1-0.2-0.8c-3.8-6-7.6-10.7-10.9-16.9c-0.5-0.7,3.4-3.5,4-2.9
								c2.2,2.5,4.1,5.5,6,8.3c2.9,3.9,6.1,7.4,9.2,11.2c13-1.3,26.5-1.7,39.9-2.3l11.5-11.8c-17.8-17.1-36.5-32.5-57.5-42.3
								c-4.2-1.5-11.2-3.1-15.6,0c-5.9,3.9-5.6,10.5-4.4,16.6c0.1,0.4,0.4,1,0,1.4c-1.1,0.8-3.1,2.4-3.8,1.6c-2.2-3.9-3-8.3-2.7-13
								c0.8-5.5,3.2-11.4,8.6-13.8c7.1-2.6,15.7-0.8,22.1,2.3C-217.9,205.3-209.4,210.8-201.1,216.7L-201.1,216.7z"/>
						</g>
					</g>
				</g>
			</g>
		</g>
	</g>
</g>
</svg>
