<?xml version="1.0" encoding="utf-8"?>
<!-- Generator: Adobe Illustrator 19.1.0, SVG Export Plug-In . SVG Version: 6.00 Build 0)  -->
<svg version="1.1" id="Lager_1" xmlns="http://www.w3.org/2000/svg" xmlns:xlink="http://www.w3.org/1999/xlink" x="0px" y="0px"
	 viewBox="-152 277.9 306.1 238.1" style="enable-background:new -152 277.9 306.1 238.1;" xml:space="preserve">
<style type="text/css">
	.st0{fill:#FFFFFF;}
</style>
<g>
	<path class="st0" d="M44.4,333.4c1.8,1.6,2.3,4.3,1.5,6.4c-0.9,1.6-2.8,3-4.9,2.9c-2.3-0.3-4.3-2.6-4.5-4.7
		c-0.2-1.9,0.4-2.7,1.3-3.8C39.3,332.3,42.6,331.9,44.4,333.4L44.4,333.4z"/>
	<path class="st0" d="M-69.9,348.5c1.6,1.8,1.8,4.4,0.8,6.6c-1.1,1.5-2.7,1.9-4.4,2.1c-2.2,0-3.9-1.7-4.8-3.5
		c-0.9-2.1-0.3-5,1.3-5.9C-74.7,346.7-71.6,346.4-69.9,348.5L-69.9,348.5z"/>
	<path class="st0" d="M9.5,397.5c0.9,2.6-0.2,5-1.9,6.8c-1.8,1.6-4.5,1.6-6.6,0.7c-2.2-0.7-2.9-3-3.4-4.9c-0.2-2.4,1.2-4.5,3.2-5.9
		c1.6-0.5,3.3-1,5-0.3C7.3,394.6,8.8,395.8,9.5,397.5L9.5,397.5z"/>
	<path class="st0" d="M-75.4,407.2c1,1.3,2,2.6,1.5,4.8c-0.3,1.5-1.6,3-3,3.6c-1.6,0.8-3.6,0.2-4.7-0.4c-1.3-1-2.4-2.2-2.6-3.8
		c-0.3-1.8,0.5-3.4,1.8-4.5C-80.3,405.2-77,405.4-75.4,407.2L-75.4,407.2z"/>
	<path class="st0" d="M12.4,376.6c-1.9-1.9-4.1-4.3-6.1-6l-6.2,5.9L12.4,376.6L12.4,376.6z M19.8,384.4c-9-0.7-17.7-0.7-27-0.6
		c-6.6,6.6-13.1,14-19.1,21.3c-0.4,0.6,0.4,1.2,1.1,2c1.7,1.8,3.5,4,5.5,6.2c0.8,0.9,1.7,1.6,2.4,2.4c0.2,0.2,44.1-0.1,44.1-0.1
		c3.8-3.3,7.3-6.8,10.4-10.4C31.8,398.1,26.2,390.9,19.8,384.4L19.8,384.4z M-17.9,384.2c-9.3-0.3-17.8,0.5-26.5,1.1
		c3.5,5.2,8.7,9.7,12.9,14.6c0.2,0.3,0.5,0,0.5,0C-26.7,394.5-22.7,389.4-17.9,384.2L-17.9,384.2z M56,386.1
		c-9.1-1-17.2-1.6-26.6-1.8l13.2,15.9C47.3,395.6,51.9,391,56,386.1L56,386.1z M102.2,395.9c-11.3-5.8-23.8-7.2-36.8-8.9
		c-6.2,6.1-11.9,12.8-18.1,18.6c-0.3,0.4-0.4,0.6-0.2,0.8L53,415c4.9,0.1,22.3-2.6,33-4.7c2.3-0.4,16.7-4,18.9-8.6
		C105.8,399.3,104.2,397.1,102.2,395.9L102.2,395.9z M45.1,415.3c-0.9-1.3-1.9-3-3.2-4.2l-4.4,4.4C39.8,415.4,42.7,415.6,45.1,415.3
		L45.1,415.3z M-28.2,415c-0.6-1.1-1.9-2.5-2.8-3.3c-0.8,0.8-1.6,1.8-2.5,3C-31.7,414.9-29.5,415-28.2,415L-28.2,415z M-21.5,421.9
		c-5.5-0.8-11-0.8-16.6-1.3c-5.2,6.9-9.7,14-14.4,22.1c-4.3,7.5-9.6,14.4-9.4,23.7c0.1,1.6,1.6,3.5,2.8,4.6
		c3.3,2.9,7.9,1.5,11.7,0.6c16.7-6.4,30.8-19.2,45.4-30.8C-8.1,434.3-15.2,427.9-21.5,421.9L-21.5,421.9z M50.2,422.2
		c-6.8-0.1-13.4,0.3-20.2,0.6c-6.9,6-14,12.4-20.9,18c14.7,13.4,30.9,24,48.3,30.8c2.9,0.6,6.3,2.3,9.2,0.7c2.3-1.2,3.7-3.2,3.4-6
		C67.8,449,58.8,436,50.2,422.2L50.2,422.2z M18.3,422.9c-9.2,0.1-18.6-0.1-27.9-0.5c0,0-1,0-0.4,0.6c4.4,4.5,8.9,8.8,13.8,13.1
		C8.3,431.5,14.1,427.8,18.3,422.9L18.3,422.9z M-26.4,332.9c11.1,8.2,22.2,17.1,32.7,27.2c7.4-6.8,15.4-14.4,24-19.3
		c1.3-0.6,2.5,1.8,3.6,3.5c0.3,1-0.9,1.9-0.9,1.9c-7.4,6.1-14.5,12.3-21.3,19.2L23,377.2c13,0.2,26.8,1.4,39.8,2.4
		c12.3-13.3,23.9-27.3,29-43.8c0.8-3.2,1.3-7.7-0.4-10.6c-3.3-4.9-9.5-4-14.7-3.6c-8.6,1.6-16,6-23.5,10.2c-1,0.6-3.2-2.2-3.2-3.6
		c0.5-2.4,3.3-3.2,5-4.7c10.5-6.6,23.7-12.3,36.8-7.6c4.2,2.4,7.7,6.6,7.6,11.8c0.1,14.7-8.4,26-15.7,37.6
		c-3.5,5.5-8.4,10.2-12.1,15.5c8,1.3,15.9,2.8,23.4,5.1c6.5,2.4,14.7,5.4,17,12.8c0.4,2.2,0.1,5.6-1.8,7.6
		c-5.5,5.4-11.6,6.9-17.8,8.9c-11.2,2.9-23.1,4.8-34.8,5.9c1,1.8,2.2,3.5,3.3,5.3c6.7,12.9,14.1,25,16.3,39.8
		c0.5,4.6-1.6,9.8-5.6,11.7c-8.6,3.9-19.4-0.9-21.8-2.2c-16-8.2-32-17.7-45.8-30.2c-15.1,11.8-30.3,23.7-47.3,31.4
		c-5.3,1.8-12.8,3.4-18.1,0.3c-4.3-1-6.7-6.2-7.1-9.2c-0.5-9.8,4.2-17.5,8.3-25.5c4.2-7.7,8.9-15.2,14.2-22.5
		c-7.5-1.1-15.1-1.9-22.3-3.4c-0.8-0.2,0-5.6,0.6-5.5c8.7,0.7,17.5,2.1,26.5,2.6c2-2.4,3.1-4.8,5.3-7.1c0.2-0.2,0.3-0.5,0.1-0.6
		c-6.2-6.6-11-12.8-16.8-19.5c-16,2.2-32.3,3.4-46.5,10c-1.6,1-2,2.7-0.8,4.2c3.1,3.4,7.2,4.1,11.1,5.6c0.8,0.3,0.1,5.5-0.7,5.4
		c-5.9-0.8-11.5-2.4-16-6.8c-2.1-2.2-3.8-5.1-2.6-8.1c2.9-6.4,10-7.4,15.5-9.7c10.9-3.4,22.3-5.7,33.9-7.2c0,0,0.4-0.1-0.2-0.8
		c-3.8-6-7.6-10.7-10.9-16.9c-0.5-0.7,3.4-3.5,4-2.9c2.2,2.5,4.1,5.5,6,8.3c2.9,3.9,6.1,7.4,9.2,11.2c13-1.3,26.5-1.7,39.9-2.3
		l11.5-11.8c-17.8-17.1-36.5-32.5-57.5-42.3c-4.2-1.5-11.2-3.1-15.6,0c-5.9,3.9-5.6,10.5-4.4,16.6c0.1,0.4,0.4,1,0,1.4
		c-1.1,0.8-3.1,2.4-3.8,1.6c-2.2-3.9-3-8.3-2.7-13c0.8-5.5,3.2-11.4,8.6-13.8c7.1-2.6,15.7-0.8,22.1,2.3
		C-43.2,321.5-34.7,327-26.4,332.9L-26.4,332.9z"/>
</g>
</svg>
